<svg xmlns="http://www.w3.org/2000/svg" data-name="Layer 1" viewBox="0 0 512 512">
  <path d="M393.64 201.32c-4.16-.43-8.33-.85-12.48-1.39a47.3 47.3 0 0 1-7.11-1.29 4.72 4.72 0 0 1-1.57-.63c-.2-.13-.07 0 0 .12s0 .09 0 .1c.25-.4.05-.15.27-.4a12.42 12.42 0 0 1 1.56-1.43c1.93-1.54 4.08-2.9 6.14-4.28a1.52 1.52 0 0 0-.76-2.8 189.49 189.49 0 0 0-21.18-.55c-12.42.07-24.83.4-37.23.74q-26.79.74-53.57 1.56-34.67 1-69.33 1.89-42.53 1-85.05 1.71l-11.55.18a1.5 1.5 0 0 0 0 3q43.62-.65 87.22-1.67 35.52-.83 71-1.88 27.76-.81 55.54-1.63c13.1-.37 26.2-.73 39.31-.87 7.68-.09 15.42-.23 23.09.37.58 0 1.15.09 1.72.15l-.76-2.79c-2.2 1.48-4.44 2.93-6.52 4.58-1.13.88-2.5 2-2.85 3.43-1 4.1 6.52 4.66 8.92 5 5.05.75 10.13 1.25 15.21 1.77 1.92.2 1.9-2.81 0-3Z"/>
  <path d="M103.9 196.44a84.28 84.28 0 0 1 30.21-33.58A81.53 81.53 0 0 1 147.9 156c1.78-.7 1-3.6-.8-2.9a86 86 0 0 0-40.71 33.06 91.81 91.81 0 0 0-5.08 8.81c-.87 1.72 1.71 3.24 2.59 1.52Zm26.74 156.88q41.6-1.44 83.2-2.66c19.53-.56 39.06-1.06 58.6-1.39 12.73-.22 25.46-.38 38.19-.29 7.3 0 14.61.14 21.89.63 1.16.08 2.33.17 3.49.28l1.45.16.67.08h.28a22.43 22.43 0 0 1 3.71.77c.21.06.4.14.6.21-.4-.13-.14-.1.16.09l.37.23c-.12-.07-.27-.29 0 0s-.26-.4-.05-.05-.15-.49 0-.08c.06.24 0-.55 0-.13s.1-.53 0-.12-.13.19.05-.08c-.06.09-.09.2-.15.28s-.6.8-.18.29l-1 1.21c-.91 1.12-1.78 2.43-1.38 3.94.53 2 2.86 2.95 4.61 3.56a62.22 62.22 0 0 0 12.75 2.47c1.6.2 3.2.38 4.81.55 1.92.2 1.9-2.8 0-3-1.67-.17-3.33-.36-5-.57l-.56-.07h-.23l-1-.15-1.94-.29a59.44 59.44 0 0 1-6.05-1.22q-1.06-.27-2.1-.63l-.81-.32c.65.26-.17-.07-.36-.17s-.38-.21-.57-.32-.51-.44-.19-.11a3.4 3.4 0 0 0-.34-.32c-.37-.29.2.33 0 0s-.07-.17 0 0c0-.1-.05-.21-.08-.32.16.62 0 .31 0 .06s-.07.55 0 .06a2.81 2.81 0 0 1 .1-.31c-.13.6-.13.24 0 0l.42-.64c.19-.3-.32.38 0 0l.25-.3c.17-.21.35-.41.52-.61a8.58 8.58 0 0 0 1-1.44 2.88 2.88 0 0 0-1.44-4c-2.49-1.3-5.69-1.45-8.41-1.71-6.21-.6-12.48-.72-18.73-.83-11.28-.18-22.57-.09-33.85.06-17.73.22-35.45.63-53.17 1.1q-38.43 1-76.85 2.34l-22.64.77c-1.93.07-1.94 3.07 0 3Zm233.84-244.86c-5.34.09-10.7.25-16 .68a69.93 69.93 0 0 0-10 1.35c-1.63.37-3.59.84-4.82 2.06a2.72 2.72 0 0 0 0 3.92 10.87 10.87 0 0 0 4 2.4 48.34 48.34 0 0 0 6.32 2 128.38 128.38 0 0 0 17.94 3.13 103.94 103.94 0 0 0 18.24.65c.64 0 1.27-.1 1.91-.17a1.54 1.54 0 0 0 1.5-1.5 1.52 1.52 0 0 0-1.5-1.5 89.81 89.81 0 0 1-17-.16 131.31 131.31 0 0 1-17.38-2.65 68.82 68.82 0 0 1-6.9-1.85c-.48-.16-1-.32-1.43-.5-.21-.08-.41-.15-.61-.24l-.32-.12c-.24-.1.28.12 0 0a14.4 14.4 0 0 1-1.95-1l-.35-.23c-.24-.15.24.22.08.07s-.12-.1-.17-.15l-.24-.24c-.3-.26.06.09 0 0a.89.89 0 0 1-.13-.23c.13.29.1.33.06.07v.14c0-.27-.09.48 0 .24s-.06.11-.09.19a1 1 0 0 1 .13-.23c-.15.21-.17.29 0 0s-.21.1 0 0l.36-.23.43-.22c.4-.19-.19.06.23-.09s.81-.28 1.22-.4a45.23 45.23 0 0 1 8-1.33c4.66-.47 9.36-.67 14-.81 1.47 0 2.95-.07 4.42-.09 1.93 0 1.94-3 0-3Zm-34.16 10.64c-.41 18.16 24 15.85 36.16 16.2 3.79.11 7.72.23 11.37 1.37 1.84.58 2.63-2.31.79-2.89a38.63 38.63 0 0 0-9.69-1.39c-3.87-.19-7.75-.17-11.62-.26a77.35 77.35 0 0 1-11.38-.88c-3.1-.54-6.38-1.38-8.92-3.33-2.8-2.15-3.79-5.4-3.71-8.82.05-1.93-2.95-1.93-3 0Zm-.32 16.21c1.35 4 2 8.51.28 12.44-1.49 3.32-4.28 5.81-7.24 7.87-6.55 4.57-14.61 7.64-19.68 14.06a18.31 18.31 0 0 0-3.78 13.55c.2 1.89 3.2 1.92 3 0a15.58 15.58 0 0 1 2.85-11.35c2.31-3.08 5.6-5.33 8.84-7.34 6.52-4 14.9-7.65 18.44-14.95 2.33-4.79 1.85-10.15.18-15.08-.61-1.82-3.51-1-2.89.8Zm-80.22 43.63a414.6 414.6 0 0 1 9.36-46.55c4.32-16 9.94-31.83 18.16-46.28 7.67-13.5 17.84-25.89 31.23-34a68.82 68.82 0 0 1 10.34-5.17c.91-.36 1.83-.69 2.74-1a10.36 10.36 0 0 1 2.94-.38 25.92 25.92 0 0 1 5.13.25 19.77 19.77 0 0 1 14 9.61c3.26 5.44 4.52 11.92 4.76 18.18a60 60 0 0 1-2.55 19.75q-.67 2.19-1.53 4.32c-.73 1.79 2.17 2.57 2.89.8a60.12 60.12 0 0 0 4.17-20.09 48.16 48.16 0 0 0-3-20.08c-2.35-5.8-6.35-11-12.16-13.62a25.17 25.17 0 0 0-10.26-2.2 17.22 17.22 0 0 0-6.06.82q-2.85 1-5.6 2.3C299.64 52.33 288 64 279.13 77.38c-9.42 14.26-15.85 30.37-20.74 46.68a371.57 371.57 0 0 0-10.66 48.59q-.43 2.74-.84 5.5c-.29 1.88 2.6 2.7 2.89.79Zm-35.53-1.76c-1-8.63-2.31-17.21-3.39-25.83A194.65 194.65 0 0 1 209 125.6c.07-7 .7-14.4 3.6-20.75a20.92 20.92 0 0 1 13.15-11.79c8.85-2.67 18.69-.87 27.4 1.45 1.55.41 3.1.86 4.64 1.34 1.85.56 2.64-2.33.8-2.9-9.78-3-20.58-5.45-30.82-3.47a24 24 0 0 0-16.29 11.06c-3.77 6.21-5 13.71-5.35 20.85a154.72 154.72 0 0 0 1.26 25.9c1 8.91 2.39 17.78 3.5 26.68.13 1.07.26 2.14.38 3.21.22 1.9 3.22 1.92 3 0Zm2.1-88.51a60.93 60.93 0 0 0-24.47-32.09l-1.16 2.74A53.66 53.66 0 0 1 203 63.23c3.11 1.39 6.11 3 9.24 4.37 2.48 1.05 5.15 2 7.88 1.52s4.83-2.7 6.22-5.05c3-5 4.24-11.15 5.44-16.79h-2.89c1.26 7.94 5.19 16.42 14 17.77 7.78 1.19 15.72-2.63 22-6.81a67.75 67.75 0 0 0 11-9.16l-2.1-2.08a126.7 126.7 0 0 0-19.25 32.27c-.74 1.78 2.16 2.56 2.89.8a122.32 122.32 0 0 1 18.48-30.95c1.2-1.46-.75-3.53-2.12-2.12-5.35 5.5-11.8 10.42-19 13.28-5.67 2.26-12.88 3.49-17.71-1.2-3.35-3.26-4.67-8.08-5.38-12.56-.24-1.47-2.6-1.39-2.89 0-1.07 5-2.18 10.29-4.51 14.9a12 12 0 0 1-2.39 3.48 4.75 4.75 0 0 1-2.25 1.28l-.36.07c-.4.08.32 0-.09 0h-.74a4.64 4.64 0 0 1-1.44-.16 20.29 20.29 0 0 1-3.4-1.09c-3-1.26-5.82-2.81-8.76-4.15a57.1 57.1 0 0 0-13.35-4.39 1.51 1.51 0 0 0-1.16 2.74 57.63 57.63 0 0 1 23.1 30.3c.59 1.83 3.49 1 2.89-.8Zm-44.11 89.87c-.4-5.89-4-11-7.17-15.76a52.07 52.07 0 0 1-4.34-7.38 9.23 9.23 0 0 1-.88-6.3c.93-3.16 4.3-5 7.07-6.27 1.75-.82.23-3.41-1.51-2.59-3 1.38-6.06 3.27-7.68 6.23a10 10 0 0 0-.71 7.44c1.54 5.79 5.83 10.6 8.82 15.66 1.62 2.74 3.18 5.74 3.4 9 .13 1.92 3.13 1.93 3 0Z"/>
  <path d="M162.54 140.25c-5.7-1.18-11.13-4.63-15.58-8.26s-9.67-8.86-10.58-15a10 10 0 0 1 2.62-8.24c1.28-1.44-.83-3.57-2.12-2.12-10.88 12.18 5.12 26.74 15.29 32.56a32.77 32.77 0 0 0 9.58 3.95c1.88.39 2.69-2.5.79-2.89Z"/>
  <path d="M134.87 108.22c-4.2-5.53-5.5-13-4.42-19.73 1-6 3.89-12.75 9.86-15.23 3.49-1.44 7.27-.92 10.7.4 1.8.7 2.58-2.2.79-2.89a17.32 17.32 0 0 0-11.4-.71 16.52 16.52 0 0 0-8.13 6c-4.59 6.09-5.87 14.39-4.78 21.79a25.75 25.75 0 0 0 4.79 11.88c1.15 1.52 3.76 0 2.59-1.51ZM153 67.24c12.24-7.42 30.29 1.12 33.61 14.76a16.4 16.4 0 0 1-1.4 11.32c-.87 1.71 1.72 3.23 2.59 1.51 8.05-15.88-7.46-32.28-23.21-33.34a22.45 22.45 0 0 0-13.1 3.16 1.5 1.5 0 0 0 1.51 2.59Z"/>
  <path d="M189.36 89c3.84 1.58 7.51 4.12 8.35 8.22.71 3.48-.69 7.57-2.17 11-3.72 8.7-9.73 16.94-10.73 26.57a17.07 17.07 0 0 0 5 14 1.5 1.5 0 0 0 2.12-2.12 14.17 14.17 0 0 1-4.15-11.67c.41-4.59 2.38-9 4.36-13.09 2.14-4.44 4.54-8.75 6.43-13.3 1.58-3.8 2.84-8 2.06-12.12-1-5.37-5.75-8.53-10.47-10.47-1.79-.73-2.57 2.17-.8 2.89Zm-31.7 4.66a28.19 28.19 0 0 0 3.6 16.13 57.12 57.12 0 0 0 4.49 7 46 46 0 0 1 4.63 6.74c4.5 9.16 4 19.89 5.69 29.73 1 5.6 2.65 11.15 6 15.78 1.13 1.54 3.74 0 2.59-1.51-6-8.21-6.18-18.74-7.36-28.43a57.1 57.1 0 0 0-3.3-14.73 26.75 26.75 0 0 0-3.69-6.47c-1.67-2.15-3.29-4.34-4.74-6.65-3.37-5.33-5.58-11.2-4.92-17.59.19-1.92-2.81-1.91-3 0Z"/>
  <path d="M150.88 113.76a106.3 106.3 0 0 1 12.1 6.46c1.65 1 3.15-1.57 1.52-2.59a104.74 104.74 0 0 0-12.1-6.46 1.53 1.53 0 0 0-2.05.54 1.51 1.51 0 0 0 .53 2.05ZM176 126.91a13 13 0 0 1 4.73-12 1.55 1.55 0 0 0 .54-2 1.51 1.51 0 0 0-2.05-.54 16.14 16.14 0 0 0-6.11 15.38 1.51 1.51 0 0 0 1.84 1 1.52 1.52 0 0 0 1-1.84Zm-4.76-22.59.75-7.67a1.5 1.5 0 0 0-1.5-1.5 1.54 1.54 0 0 0-1.5 1.5l-.75 7.67a1.52 1.52 0 0 0 1.5 1.5 1.54 1.54 0 0 0 1.5-1.5Zm117.9-16.82c.94 0 1.88.08 2.82.18.43 0 .45 0 .93.13s.75.14 1.12.22a17.27 17.27 0 0 1 1.77.54c.22.08-.22-.11.14.06l.32.16a5.26 5.26 0 0 1 .65.38l.26.18c-.37-.24-.07 0 0 0s.29.31.43.45c-.15-.15-.15-.23 0 0l.13.21a1.83 1.83 0 0 0 .13.24c.11.18-.11-.36 0 0a2.59 2.59 0 0 0 .12.48s0-.39 0-.1v.54c0 .08.08-.39 0-.06s-.08.37-.15.56a2.25 2.25 0 0 0-.08.24s.15-.32 0 0-.19.37-.3.55l-.34.53c-.2.27 0 0 0 0l-.23.27a10.21 10.21 0 0 1-1 1c-.18.17-.38.33-.57.48s.1-.07.1-.07l-.17.12-.38.28a18.87 18.87 0 0 1-3 1.64c-.06 0-.26.11 0 0l-.22.09-.39.15-.9.31a18.92 18.92 0 0 1-1.83.48c-.34.08-.69.13-1 .19s.14 0-.22 0l-.56.06a15.26 15.26 0 0 1-2.14 0c-.38 0-.76-.05-1.14-.08h-.23l-.57-.1a13.84 13.84 0 0 1-2.18-.61 1.5 1.5 0 1 0-.8 2.89 18.91 18.91 0 0 0 16.36-2.24 11.61 11.61 0 0 0 4.61-5.13 4.88 4.88 0 0 0-1.22-5.47c-2.65-2.38-6.78-2.67-10.15-2.76-1.93 0-1.93 3 0 3Zm-10.47 32.23a44.61 44.61 0 0 1 6.11 1 23.41 23.41 0 0 1 2.27.66l.42.16c.16.06.45.19.12 0 .28.13.56.25.83.4a6 6 0 0 1 .6.36s.24.14.24.18-.32-.28-.1-.08l.13.12.21.2c.16.18.07.28 0-.06a1.61 1.61 0 0 0 .25.41c.07.1-.13-.44-.06-.11a1.29 1.29 0 0 0 .06.21c.06.17 0-.48 0-.17v.23c0 .29.11-.42 0-.14l-.06.21c0 .2-.21.21.06-.11a2.12 2.12 0 0 0-.11.21 2.39 2.39 0 0 1-.13.21c-.1.17-.27.21.06-.06a5.34 5.34 0 0 0-.39.44c-.14.13-.28.26-.43.38l-.12.1c-.14.12.33-.24.12-.1l-.3.22a11.51 11.51 0 0 1-1.31.77l-.65.32-.38.17c-.29.13.33-.13 0 0l-.24.09a27.27 27.27 0 0 1-3.63 1.14c-.67.16-1.34.29-2 .41l-1.05.16h-.24l-.54.06a30.67 30.67 0 0 1-5 .11c-.42 0-.84-.06-1.26-.1l-.54-.07c.45.06-.25 0-.36-.06a20.35 20.35 0 0 1-2.41-.53 1.5 1.5 0 0 0-.79 2.9 27.86 27.86 0 0 0 9.58.82 31.07 31.07 0 0 0 8.74-1.86c2.1-.8 4.41-1.88 5.69-3.82a3.55 3.55 0 0 0 .53-2.83 4.61 4.61 0 0 0-2-2.52 13.81 13.81 0 0 0-4.38-1.81 48.44 48.44 0 0 0-7.57-1.27 1.51 1.51 0 0 0-1.5 1.5 1.54 1.54 0 0 0 1.5 1.5Zm-64.47 3.13c7.47-4.42 16.76-3.84 24.94-2.07 1.89.41 2.69-2.48.8-2.89-9-1.94-19.07-2.48-27.26 2.37a1.5 1.5 0 0 0 1.52 2.59Zm2.8 21.19a19.58 19.58 0 0 1 10.7-.51 1.53 1.53 0 0 0 1.85-1 1.51 1.51 0 0 0-1.05-1.84 22.66 22.66 0 0 0-12.3.5 1.54 1.54 0 0 0-1.05 1.85 1.53 1.53 0 0 0 1.85 1.05Zm-40.42 88.47c12.76.34 16.65 3.61 14.41 16.51l-2.12-.07c1.56-12.93-16.79-16.93-24.81-9.37-12.24 11.76-11.72 39.79 5.24 46.91 8.17 3.74 15.85-3.64 22-5.65.67 3.72-6.56 6.77-9.4 8.56-40.38 15.37-44.42-58.16-5.32-56.89Zm24.22 58.06h-.39c.68-9.79 1.38-20.54 1.22-30.25-.44-3.38-4.73-1.52-7-1.13l-.36-1.75c19.6-9.13 11.34 7.88 11.52 19.65h.24c2.59-8.44 4.88-21.32 14.87-22.65a4.13 4.13 0 0 1 3.92 6c-.35.62-.88 1.59-1.7 1.8-13.4-6.77-15.55 19.08-17.23 27.66Zm45-25.73c.75-11.38-19.62-8.56-11.79 1.95-5.54 4-9.52-4.35-4.3-7.86 39.07-22 7.36 37.28 29.61 27.64l.71 1.05c-6.43 7.2-17.34 1.76-14.72-7.82-18.76 31-34-10.9.1-8.81a54 54 0 0 0 .39-6.15Zm-15 16.77c1.87 12 15.08-1.78 14.4-8.59-5.71.12-14.44 1.25-14.39 8.59Zm39.97-26.02c.2 7.49-7.81 37.82 7.13 30 1.34 3.5-14.31 9.25-13.48 1.15.58-5.5-4.68-37.63 6.35-31.15Zm-2.12-11c-5.1-.15-4.47-8.72.42-8.62 5.21.02 4.37 8.57-.42 8.58Z"/>
  <path d="M306.66 259.5c5.55 7.8.1 19.15-8.69 21.51-4.37.06-15.72 2-7 6.91 6.21 2.4 14.28 2 19.54 6.56 7.07 8.68-4.68 18.88-13.32 20.09-18.92 4.73-30.79-14.19-9.46-22.08-7.2-2.17-5.41-10.26 1.1-11.89-14.64-5.53-6.76-27.11 7.42-26.13 5.17-.53 11.57 6.62 15.22.23.83-8.78 10.73 8.63-4.81 4.8Zm-16.06 34.13c-12.66 2.61-10.09 20 2.78 18.92 19.79-3.16 17.04-17.77-2.78-18.92Zm5-14.77c10.86-.83 9.36-21.59-1.27-21.65-11.26.59-9.5 21.62 1.3 21.65ZM317.36 252c5.24-3.91 7.84-11.09 1.94-15.41 1.33-15 18.51 3.4-.77 16.8Zm12.55 29.13c-.15 9.38 18.55 9.43 14.82-.53-7.07-6-27.22-12.51-13.27-23.54 12.09-9.09 28 7.19 12.58 7.25 3.43-7.75-9.2-9.25-12.07-3.54-2.56 8.35 10.57 9.1 14.93 13.58 9.38 8.24-3.22 19.3-12.78 16.69-6.46.66-14.01-9.75-4.21-9.91Z"/>
  <path fill="none" stroke="#000" stroke-miterlimit="10" stroke-width="2" d="m387.14 320.32-271 4-2-105 271-4 2 105z"/>
  <circle cx="128.64" cy="230.82" r="2.5" class="cls-2"/>
  <circle cx="130.64" cy="309.82" r="2.5" class="cls-2"/>
  <circle cx="372.64" cy="306.82" r="2.5" class="cls-2"/>
  <circle cx="369.64" cy="227.82" r="2.5" class="cls-2"/>
</svg>
