<svg xmlns="http://www.w3.org/2000/svg" data-name="Layer 1" viewBox="0 0 512 512">
  <path d="M483 253.27c-6.5-.67-13-1.33-19.48-2.17a75.17 75.17 0 0 1-11.33-2 10.52 10.52 0 0 1-2.65-1.07c-.49-.32-.49-.43-.48-.54 0 .15.07-.21.11-.28a4.17 4.17 0 0 1 .55-.78 16.11 16.11 0 0 1 2.43-2.24c3.1-2.47 6.47-4.61 9.75-6.82a1.51 1.51 0 0 0-.76-2.79c-10.94-1.15-22.08-.94-33.06-.87-19.38.12-38.76.64-58.13 1.16-27.88.76-55.75 1.63-83.63 2.45q-54.12 1.59-108.23 2.93-66.39 1.62-132.78 2.68-9 .15-18 .27c-1.93 0-1.93 3 0 3q68.09-1 136.17-2.6 55.44-1.29 110.88-2.93c28.91-.84 57.81-1.74 86.71-2.55 20.45-.57 40.91-1.14 61.37-1.36 12-.13 24.08-.35 36.06.57.89.07 1.78.15 2.67.25l-.75-2.8c-3.38 2.28-6.82 4.5-10 7-1.6 1.26-3.76 2.88-4.22 5-1.23 5.58 10.2 6.32 13.34 6.78 7.8 1.16 15.66 1.92 23.51 2.73 1.92.2 1.9-2.8 0-3Z"/>
  <path d="M29.93 244.38a138.55 138.55 0 0 1 16.17-25 127.46 127.46 0 0 1 53-38.58c1.78-.69 1-3.59-.8-2.89A131.62 131.62 0 0 0 60 200.76a134.83 134.83 0 0 0-24.9 28.62 141.91 141.91 0 0 0-7.76 13.49c-.87 1.72 1.72 3.24 2.59 1.51ZM72.4 488.89q35.07-1.22 70.14-2.35 29.86-.94 59.73-1.81 25.06-.71 50.13-1.31 20.58-.5 41.17-.85 16.71-.29 33.43-.43 13.14-.09 26.27 0c6.65.05 13.29.14 19.94.33 4.81.14 9.62.33 14.42.66 1.79.12 3.58.26 5.37.43l2.28.25 1 .13h.18l.52.07a35.38 35.38 0 0 1 5.77 1.19l1 .35c.23.08-.4-.21.07 0 .11.06.24.11.35.18s.39.23.59.36c-.14-.09-.13-.21.14.15s-.08-.39.07.1c.1.34 0-.17-.05-.14a1.17 1.17 0 0 1 .06.2c.1-.05-.2-.27 0 0s0-.41 0 0c0 .26-.27.6 0 .08-.08.15-.14.3-.23.44s-.2.3-.29.45-.49.63-.12.17c-.51.63-1.05 1.24-1.57 1.88a11.16 11.16 0 0 0-1.53 2.25 4.54 4.54 0 0 0-.42 3.09 5.35 5.35 0 0 0 2.18 2.94 16.56 16.56 0 0 0 4.45 2.12 54.7 54.7 0 0 0 7.58 1.94c4 .8 8.06 1.38 12.11 1.89 2.49.31 5 .59 7.48.85 1.92.2 1.91-2.8 0-3-4.92-.51-9.21-1-13.87-1.76a95.58 95.58 0 0 1-9.47-1.9c-1.08-.28-2.16-.6-3.22-1-.44-.16-.87-.32-1.29-.5.39.16 0 0-.25-.11L406 496c-.3-.15-.6-.32-.89-.5s-.81-.61-.44-.28l-.55-.51c-.48-.43.11.16-.18-.21s-.29-.5-.12-.18a2 2 0 0 1-.13-.5c.11.7 0 .11 0-.12s-.18.44 0-.12c0-.16.11-.33.16-.5-.21.64 0 .05.1-.16s.42-.66.64-1-.25.29.16-.2l.39-.48.81-.95a12.28 12.28 0 0 0 1.5-2.09 3.66 3.66 0 0 0 .34-2.78 4.32 4.32 0 0 0-2.28-2.36 18.11 18.11 0 0 0-4.6-1.45 78.83 78.83 0 0 0-8.08-1.11c-4-.39-8-.62-12.05-.8-5.72-.26-11.44-.4-17.16-.49q-11.56-.18-23.11-.15-14.87 0-29.71.23-18.7.24-37.4.64-22.89.48-45.79 1.09-27.49.72-55 1.56-32.5 1-65 2.09l-35.25 1.2c-1.92.06-1.93 3.07 0 3ZM437.49 108.3c-8.4.13-16.8.39-25.18 1.08a108.49 108.49 0 0 0-15.22 2.05c-2.39.55-5.36 1.21-7.17 3a3.42 3.42 0 0 0 0 4.93c1.53 1.71 3.89 2.68 5.95 3.53a75.36 75.36 0 0 0 10 3.17 201 201 0 0 0 27.67 4.84 161.78 161.78 0 0 0 28.43 1c1-.07 2-.15 3-.26 1.9-.19 1.92-3.19 0-3a139.36 139.36 0 0 1-26.55-.27 211.09 211.09 0 0 1-27.28-4.14c-3.66-.82-7.31-1.75-10.88-2.93a27.54 27.54 0 0 1-6.94-3l-.53-.37c-.29-.21.11.1 0 0l-.24-.21-.37-.36c-.36-.34.08.15-.14-.16-.08-.11-.13-.24-.2-.36.32.59 0 0 0-.09v.17c0-.07 0-.35 0 0s.18-.46-.05.11a1.2 1.2 0 0 1 .22-.36c-.22.27-.07.09.12-.1.34-.35-.12 0 .2-.17l.55-.34a12.64 12.64 0 0 1 3.12-1.26 74.47 74.47 0 0 1 12.7-2.1c7.24-.72 14.52-1 21.79-1.25q3.5-.11 7-.15c1.92 0 1.93-3 0-3ZM385 124.06c-.13 5.43 1.28 10.81 5.08 14.82 3.57 3.76 8.61 5.82 13.56 7 12.13 3 24.94 2.23 37.33 2.61 5.87.17 12 .37 17.61 2.16 1.85.58 2.64-2.31.8-2.89-4.88-1.55-10.12-1.91-15.2-2.15-6.11-.29-12.23-.26-18.35-.41a117.27 117.27 0 0 1-17.95-1.48c-4.83-.87-9.89-2.25-13.83-5.32-4.51-3.51-6.18-8.81-6.05-14.38.05-1.93-2.95-1.93-3 0Zm-.54 25.09c2.17 6.38 3.2 13.54.45 19.85-2.31 5.29-6.69 9.27-11.33 12.55-10.17 7.19-22.82 11.91-30.76 21.87a27.84 27.84 0 0 0-5.82 20.76c.21 1.9 3.21 1.92 3 0a25.16 25.16 0 0 1 4.49-18c3.6-4.91 8.81-8.51 13.92-11.7 5.43-3.4 11.11-6.41 16.36-10.08 4.92-3.43 9.66-7.56 12.35-13 3.59-7.29 2.79-15.49.24-23-.61-1.82-3.51-1-2.89.8ZM257.6 217.27c1.77-11.85 3.74-23.68 6-35.44 2.48-12.66 5.33-25.24 8.7-37.69a378.91 378.91 0 0 1 12.11-37.44 256.38 256.38 0 0 1 16.48-35.07 171.5 171.5 0 0 1 21.59-30.13 123.34 123.34 0 0 1 27.66-23 107.61 107.61 0 0 1 16.32-8.07c1.44-.56 2.88-1.13 4.35-1.59a17.33 17.33 0 0 1 4.61-.47 40.53 40.53 0 0 1 8.16.46 31.68 31.68 0 0 1 22.18 15.39c5.12 8.57 7.12 18.79 7.51 28.67a94.22 94.22 0 0 1-4 31.17q-1 3.42-2.39 6.74c-.72 1.78 2.18 2.56 2.9.8a93.26 93.26 0 0 0 6.47-30.86c.48-10.55-.63-21.54-4.63-31.4-3.65-9-9.89-17-18.94-20.92a38.72 38.72 0 0 0-15.79-3.09c-1.54 0-3.09.1-4.62.25a18.57 18.57 0 0 0-4.73 1.25c-3 1.1-5.93 2.34-8.82 3.69a118.2 118.2 0 0 0-30.34 20.77 156.05 156.05 0 0 0-23.9 28.86 228.39 228.39 0 0 0-18.35 34.63 344.22 344.22 0 0 0-13.6 37.78c-3.8 12.75-7 25.67-9.76 38.68-2.6 12.16-4.77 24.45-6.77 36.76q-.66 4.23-1.3 8.45c-.28 1.89 2.61 2.71 2.9.8Zm-55.5-2.53c-1.56-13.62-3.65-27.16-5.35-40.76-1.65-13.32-3-26.73-2.88-40.16.13-11 1.19-22.62 5.84-32.65a33.44 33.44 0 0 1 21-18.58c14-4.2 29.53-1.38 43.29 2.3 2.39.64 4.78 1.33 7.15 2.06 1.85.57 2.64-2.32.8-2.89a147.13 147.13 0 0 0-27.1-5.93 69.13 69.13 0 0 0-20.61.51c-10.47 2-19.51 7.88-25 17.1-5.76 9.63-7.55 21.23-8.12 32.26-.7 13.43.48 26.92 2 40.26 1.6 13.89 3.73 27.72 5.45 41.6.2 1.63.39 3.25.58 4.88.22 1.9 3.22 1.92 3 0Zm3.31-137.96a93.31 93.31 0 0 0-37.82-49.6l-1.16 2.74A84 84 0 0 1 185.5 36c4.87 2.17 9.56 4.73 14.45 6.84 3.71 1.59 7.75 3.08 11.84 2.37s7.22-4.07 9.27-7.59a52.76 52.76 0 0 0 4.32-10.22 154.46 154.46 0 0 0 4-15.7h-2.9c1.12 7 3.27 14.22 7.93 19.74a21.61 21.61 0 0 0 13.42 7.43c11.91 1.76 24.07-4.19 33.72-10.6a104.14 104.14 0 0 0 17-14.12L296.48 12A194.93 194.93 0 0 0 272 50.15c-1.91 3.9-3.67 7.87-5.32 11.89-.74 1.79 2.17 2.57 2.89.8a191.44 191.44 0 0 1 29.07-48.68c1.2-1.46-.75-3.53-2.13-2.12-8.47 8.71-18.71 16.47-30.07 21-9.17 3.64-20.72 5.4-28.44-2.19-5.29-5.19-7.43-12.8-8.55-19.91-.23-1.47-2.6-1.4-2.9 0-1.67 7.87-3.44 16.13-7.07 23.38a20.41 20.41 0 0 1-3.81 5.59 8.3 8.3 0 0 1-3.93 2.29 10.87 10.87 0 0 1-4.4 0 30.09 30.09 0 0 1-5.65-1.84c-4.44-1.87-9.09-4.39-13.62-6.46a88.79 88.79 0 0 0-20.84-6.9 1.51 1.51 0 0 0-1.16 2.74A91 91 0 0 1 197.41 65a87.44 87.44 0 0 1 5.11 12.54c.59 1.83 3.49 1 2.89-.8Zm-68.9 140.09c-.59-9.18-6.46-17.16-11.34-24.58a76 76 0 0 1-6.73-11.62c-1.36-3.19-2.26-6.8-1.18-10.2 1.6-5 6.89-8 11.37-10.09 1.75-.81.22-3.4-1.52-2.59-4.53 2.1-9.31 5-11.75 9.54a14.92 14.92 0 0 0-.82 11.34 47.6 47.6 0 0 0 5.9 11.83c2.61 4.12 5.43 8.12 7.89 12.33s4.85 9 5.18 14c.13 1.92 3.13 1.93 3 0Z"/>
  <path d="M122 157.9a44.48 44.48 0 0 1-11.76-4.53 79.16 79.16 0 0 1-13.06-8.67 62 62 0 0 1-11-11.36c-2.7-3.72-5-8-5.64-12.59a16.5 16.5 0 0 1 4.35-13.44c1.29-1.43-.83-3.56-2.12-2.12a19.71 19.71 0 0 0-5.39 13.4c.06 4.91 2 9.65 4.53 13.78 5.89 9.47 15.19 17 24.79 22.47a50.2 50.2 0 0 0 14.51 5.95c1.89.39 2.7-2.5.8-2.89Zm-43.71-50.4c-6.73-8.8-8.71-20.72-7-31.51 1.56-9.55 6.3-20.16 15.71-24.19 5.64-2.4 11.83-1.64 17.4.52 1.8.7 2.58-2.2.8-2.89-5.43-2.12-11.52-2.92-17.2-1.16a24.94 24.94 0 0 0-12.45 9.18c-7 9.31-8.92 22.06-7.24 33.35A39.47 39.47 0 0 0 75.7 109c1.15 1.52 3.76 0 2.59-1.51Zm28.52-65.13c10-6.08 22.37-5.53 32.69-.56 9.84 4.74 18.5 13.43 21.06 24.29a26.42 26.42 0 0 1-2.3 18.14c-.88 1.71 1.71 3.23 2.59 1.51a29.75 29.75 0 0 0 3.09-17.89 34.21 34.21 0 0 0-7-15.83A44.6 44.6 0 0 0 125.43 35a34.17 34.17 0 0 0-20.13 4.8c-1.65 1-.14 3.6 1.51 2.59Z"/>
  <path d="M164.3 76.19c6.06 2.47 12 6.49 13.54 13 1.33 5.75-.83 12.15-3.14 17.66-2.9 6.9-6.6 13.44-9.84 20.19s-6.14 13.61-7 21a25.74 25.74 0 0 0 5.57 19.61c.62.75 1.28 1.46 2 2.15a1.5 1.5 0 0 0 2.12-2.12 22.86 22.86 0 0 1-6.78-18.44c.57-7.17 3.55-14 6.61-20.47 3.3-6.9 7.07-13.59 10-20.64 2.49-5.88 4.64-12.39 3.53-18.84-1.19-6.89-6.63-11.67-12.65-14.61-1-.51-2.1-1-3.17-1.4-1.79-.73-2.56 2.17-.8 2.89Zm-48.87 8.16c-.92 8.73 1.47 17.22 5.56 24.88a93.16 93.16 0 0 0 7.16 11.09c2.48 3.37 5.18 6.49 7 10.27 7.07 14.38 6.32 31.15 8.95 46.61 1.48 8.67 4.08 17.26 9.34 24.43 1.13 1.54 3.74 0 2.59-1.52-9.46-12.88-9.76-29.55-11.61-44.79-.93-7.71-2.18-15.49-5.12-22.72a49.19 49.19 0 0 0-2.49-5.3 38.87 38.87 0 0 0-3.54-5.09 127.47 127.47 0 0 1-7.4-10.47c-5.14-8.29-8.53-17.51-7.48-27.39.2-1.92-2.8-1.9-3 0Z"/>
  <path d="M104.44 115a164.46 164.46 0 0 1 18.89 10.09c1.64 1 3.15-1.57 1.51-2.59A164.46 164.46 0 0 0 106 112.41a1.55 1.55 0 0 0-2 .54 1.51 1.51 0 0 0 .54 2Zm37.9 21.48a21.17 21.17 0 0 1 7.77-19.68 1.55 1.55 0 0 0 .53-2 1.51 1.51 0 0 0-2-.54 24.29 24.29 0 0 0-9.14 23.07 1.51 1.51 0 0 0 1.84 1 1.53 1.53 0 0 0 1.05-1.84ZM135 101l1.17-12a1.5 1.5 0 1 0-3 0L132 101a1.5 1.5 0 0 0 1.5 1.5 1.53 1.53 0 0 0 1.5-1.5Zm184.87-27.1c4.16.1 9.06.39 12.52 2.72a2.18 2.18 0 0 1 .59.45 7.33 7.33 0 0 1 .67.7c-.19-.23.2.3.28.44s.14.25.2.38-.06-.22 0 .13a7 7 0 0 1 .19.76v.9c0 .12.07-.22 0 .14s-.14.58-.23.86-.09.26-.14.38.06-.11-.06.14-.3.58-.47.87-.35.55-.54.81a1.77 1.77 0 0 1-.16.22c-.14.19.13-.17 0 0l-.36.43a18.93 18.93 0 0 1-3.39 3 27.32 27.32 0 0 1-10 4.24 23.72 23.72 0 0 1-13.06-.8c-1.82-.66-2.6 2.24-.8 2.9 8.14 3 17.75 1.28 24.9-3.43 2.82-1.85 5.53-4.3 6.81-7.5A6.8 6.8 0 0 0 335.1 75c-3.94-3.54-10.23-3.93-15.23-4-1.94-.05-1.94 2.95 0 3Zm-16.35 50.31a74.7 74.7 0 0 1 9.75 1.57 33.56 33.56 0 0 1 3.55 1 13.29 13.29 0 0 1 2.34 1c.32.17.64.36.94.56l.38.28c-.36-.27.13.12.21.19s.22.21.32.32.36.47.08.07c.15.21.26.43.4.64s-.09-.35 0 0a1.77 1.77 0 0 0 .08.33c.08.15 0-.41 0 0v.36c0 .35.11-.34 0 0l-.09.32c0 .14-.23.49 0 0-.05.11-.1.22-.16.33s-.56.77-.25.41c-.2.23-.39.46-.61.67s-.44.41-.67.6l-.19.16c-.17.14.3-.22 0 0l-.47.34a19.82 19.82 0 0 1-2 1.2c-.33.18-.67.34-1 .5l-.6.27c-.4.18.28-.11-.13.06l-.38.15a45 45 0 0 1-11.89 2.83 40.42 40.42 0 0 1-15.13-1 1.5 1.5 0 0 0-.8 2.89 42.57 42.57 0 0 0 14.74 1.25 47.87 47.87 0 0 0 13.43-2.87c3.05-1.17 6.51-2.75 8.38-5.57a4.84 4.84 0 0 0 .74-3.78 6.29 6.29 0 0 0-2.7-3.43 20.54 20.54 0 0 0-6.63-2.74 73.44 73.44 0 0 0-11.59-2 1.5 1.5 0 0 0-1.5 1.5 1.54 1.54 0 0 0 1.5 1.5Zm-101.09 4.99c11.83-7 26.65-6.12 39.6-3.3 1.88.41 2.69-2.48.8-2.89-13.75-3-29.37-3.87-41.91 3.6a1.5 1.5 0 0 0 1.51 2.59Zm4.57 33a31.4 31.4 0 0 1 17.16-.79c1.88.44 2.68-2.45.8-2.89a34.39 34.39 0 0 0-18.76.79c-1.82.6-1 3.5.8 2.89Zm-62.86 138.95c19.91.52 26 5.63 22.49 25.76l-3.32-.11c2.45-20.18-26.21-26.43-38.72-14.62-19.11 18.35-18.3 62.11 8.17 73.24 12.75 5.84 24.75-5.7 34.36-8.83 1.06 5.82-10.23 10.58-14.67 13.36-63.05 24.05-69.37-90.8-8.31-88.8ZM182 391.78h-.61c1.06-15.29 2.16-32.07 1.9-47.23-.69-5.28-7.39-2.38-10.9-1.75l-.57-2.75c30.6-14.24 17.71 12.32 18 30.69h.38c4.05-13.17 7.61-33.29 23.21-35.37a6.46 6.46 0 0 1 6.12 9.44c-.54 1-1.37 2.48-2.65 2.8-20.98-10.61-24.34 29.79-26.97 43.18Zm70.19-40.17c1.18-17.76-30.62-13.37-18.4 3.05-8.65 6.25-14.86-6.79-6.71-12.27 61-34.3 11.48 58.2 46.23 43.14l1.11 1.64c-10 11.24-27.07 2.76-23-12.2-29.28 48.36-53.1-17 .15-13.75a80 80 0 0 0 .62-9.61Zm-23.4 26.19c2.93 18.79 23.55-2.79 22.49-13.42-8.93.19-22.57 1.95-22.49 13.42Zm62.4-40.64c.3 11.7-12.21 59.06 11.13 46.85 2.08 5.47-22.35 14.43-21.06 1.79.85-8.59-7.26-58.74 9.93-48.64Zm-3.32-17.22c-7.95-.24-7-13.62.65-13.46 8.14.02 6.82 13.44-.65 13.46Z"/>
  <path d="M347.22 343.26c8.65 12.18.15 29.9-13.57 33.58-6.82.1-24.55 3.16-10.87 10.79 9.69 3.75 22.3 3.12 30.5 10.23 11 13.56-7.3 29.48-20.8 31.37-29.54 7.4-48.06-22.15-14.77-34.47-11.23-3.38-8.44-16 1.72-18.57-22.85-8.62-10.55-42.31 11.59-40.78 8.08-.83 18.07 10.33 23.76.36 1.22-13.71 16.7 13.47-7.56 7.49Zm-25.08 53.29c-19.77 4.06-15.75 31.27 4.34 29.54 30.9-4.94 26.61-27.75-4.34-29.54Zm7.86-23.06c17-1.3 14.62-33.7-2-33.81-17.61.93-14.87 33.76 2 33.81Zm33.91-41.93c8.19-6.09 12.24-17.3 3-24.05 2.08-23.48 28.91 5.31-1.2 26.22ZM383.5 377c-.23 14.64 29 14.72 23.14-.84-11-9.27-42.48-19.51-20.72-36.74 18.89-14.19 43.7 11.23 19.65 11.32 5.35-12.09-14.36-14.44-18.85-5.52-4 13 16.51 14.2 23.31 21.19 14.65 12.87-5 30.14-19.95 26.07-10.08 1.04-21.87-15.21-6.58-15.48Z"/>
  <path fill="none" stroke="#000" stroke-miterlimit="10" stroke-width="2" d="m472.85 438.21-423.08 6.24-3.12-163.92 423.08-6.25 3.12 163.93z"/>
  <circle cx="69.28" cy="298.48" r="3.9" class="cls-2"/>
  <circle cx="72.4" cy="421.82" r="3.9" class="cls-2"/>
  <circle cx="450.21" cy="417.13" r="3.9" class="cls-2"/>
  <circle cx="445.53" cy="293.8" r="3.9" class="cls-2"/>
</svg>
