<svg xmlns="http://www.w3.org/2000/svg" id="Layer_1" data-name="Layer 1" viewBox="0 0 512 512">
  <defs>
    <style>
      .cls-1{fill:#c7b299}.cls-2{fill:#603813}.cls-3{fill:#f7931e}.cls-4{fill:#8cc63f}.cls-5{fill:#29abe2}.cls-6{fill:#009245}
    </style>
  </defs>
  <path d="M126.4 270.8q4.8 25.1 9 50.3t7.8 50.4l3.9 28.7a1.6 1.6 0 0 0 1.5 1.5 1.5 1.5 0 0 0 1.5-1.5q-3.3-25.4-7.2-50.8t-8.3-50.7l-5.3-28.7c-.4-1.9-3.2-1-2.9.8Z" class="cls-1"/>
  <path d="M148.8 402.3q32.4-3 65-3.4t65 1.9q18.3 1.2 36.4 3.3c2 .2 1.9-2.8 0-3q-32.3-3.7-65-4.8t-65 .5q-18.3.8-36.4 2.4c-2 .2-2 3.2 0 3Z" class="cls-1"/>
  <path d="M137.8 239.5c-.5-7.3-2.4-14.5-4.4-21.5-2.4-8.5-5-17-7-25.5-2-8-3.5-16.3-3.4-24.7.1-6.8 1.6-14 6.3-19.2a22.4 22.4 0 0 1 3.9-3.5 16 16 0 0 1 4.7-2.6 15 15 0 0 1 7.5.4c5.5 1.6 10 5.7 13.7 10a89.8 89.8 0 0 1 11.6 18.4 212.9 212.9 0 0 1 9.4 22.6c5 13.6 8.8 27.4 12.8 41.2l1 3.3c.5 1.9 3.4 1 2.9-.8-4-13.3-7.6-26.7-12.1-39.9a251.3 251.3 0 0 0-9.4-23.6 109 109 0 0 0-11.6-20.3 38 38 0 0 0-14.2-12.5 21.3 21.3 0 0 0-8.1-2 14.4 14.4 0 0 0-4.5.3 19.6 19.6 0 0 0-5.2 2.9c-13.7 9.6-12.7 28-10 42.7 1.7 9 4.3 17.6 6.8 26.4 2.2 7.7 4.5 15.4 5.8 23.3.3 1.5.4 3 .5 4.6.2 2 3.2 2 3 0Z" class="cls-2"/>
  <path d="M165.8 196.8c-2.4.9-5.1 1-7.6 1.4a45.8 45.8 0 0 0-9.5 2.2c-2.3.8-5 2.3-4.9 5.1a5 5 0 0 0 .6 2c.7 1.3 1.5 1.4 2.8 1.6a91 91 0 0 0 9.4.4 87.3 87.3 0 0 0 20.6-2.5c1.9-.5 1-3.4-.8-3a87.9 87.9 0 0 1-30.3 2l1.3.7a3.8 3.8 0 0 1-.5-1v-.5a2.1 2.1 0 0 1 1-1.1 18.4 18.4 0 0 1 6-2c2.4-.6 4.9-1 7.4-1.3a28.2 28.2 0 0 0 5.3-1c1.8-.7 1-3.6-.8-2.9Zm-11-23a118 118 0 0 0-8.5 2.2 39 39 0 0 0-5.6 2.1c-1.8.9-4.5 2.7-3.3 5.1a4 4 0 0 0 2.1 1.7 15.3 15.3 0 0 0 3.4 1 51.5 51.5 0 0 0 9.7 1 73 73 0 0 0 11-.8l1.4-.2a1.5 1.5 0 0 0 1-1.8 1.6 1.6 0 0 0-1.8-1l-1.3.1h-.3s.4 0 0 0l-.6.1a54.5 54.5 0 0 1-7.8.5 63.4 63.4 0 0 1-7.3-.3l-1.1-.1h-.2c-.3 0 .3 0 0 0l-.5-.1a23.7 23.7 0 0 1-3.5-.8l-.6-.2c-.4-.2.2.1 0 0l-.3-.1-.5-.3c-.2-.1-.3-.3 0 0l-.2-.2.1.2v-.2.4c0-.3.1-.1 0 .2v-.2c0-.2-.2.4 0 .1a1.9 1.9 0 0 0 0-.1c.2-.2-.2.3 0 0l.5-.4c.3-.2-.3.2 0 0l.3-.2.7-.4.9-.4.4-.2.2-.1h.1l2.6-1c2.5-.8 5-1.5 7.5-2l2.3-.6a1.5 1.5 0 0 0 1-1.8 1.5 1.5 0 0 0-1.9-1.1Z" class="cls-2"/>
  <path d="M182.3 168.4c-.5-5.4-.4-12 4.3-15.7 4.1-3.3 10.1-4.1 15.1-5.1 4.4-.9 8.8-2.3 13-1.2a13.8 13.8 0 0 1 7.4 5.5 35.6 35.6 0 0 1 5 11 94 94 0 0 1 2.7 14.7 302 302 0 0 1 1.4 33c.1 8.6-.3 17.4.8 26l.3 2.3c.3 1.9 3.2 1 2.9-.8l-.2-1v-.9a72 72 0 0 1-.6-8.5l-.1-14.8a322 322 0 0 0-1.3-34 104.4 104.4 0 0 0-2.7-15.6 41 41 0 0 0-5-12.2 17.9 17.9 0 0 0-8.5-7.2c-4.2-1.5-8.3-.7-12.5.2-5.8 1.2-12.1 2-17.4 4.9s-7.3 8-7.7 13.6a40 40 0 0 0 .2 6c.2 1.8 3.2 1.8 3 0Z" class="cls-3"/>
  <path d="M204 181a35.2 35.2 0 0 1 16.2-3.7 1.5 1.5 0 0 0 1.5-1.5 1.5 1.5 0 0 0-1.5-1.5 37 37 0 0 0-17 3.8 1.6 1.6 0 0 0-1 1.9 1.5 1.5 0 0 0 1.8 1Zm9.8 10.8a35.5 35.5 0 0 1 3.7-1.2l1-.2.5-.1h.1a12.4 12.4 0 0 1 2 0 1.5 1.5 0 0 0 1.5-1.6 1.5 1.5 0 0 0-1.5-1.5c-2.8-.2-5.5.8-8.1 1.8a1.5 1.5 0 0 0-1 1.8 1.5 1.5 0 0 0 1.9 1Z" class="cls-3"/>
  <path d="M181.7 141a62.3 62.3 0 0 0-32.8-30.7l-.8 3A69.8 69.8 0 0 0 176 115c3.2-.4 5.3-3.8 6-6.7.8-3 .6-6.2 1-9.2l-2.7.3c3.2 5.3 8.2 11.5 15.2 10.3 5.6-.9 10-6 13.4-10.2 2.4-3 4.6-6.2 6.8-9.3l-2.6-1.5a68.6 68.6 0 0 0-5.4 41.4c.6 4 1.3 8 2.2 12 .5 1.8 3.4 1 3-.8-4-16.7-5.5-35.5 2.8-51.1a1.5 1.5 0 0 0-2.6-1.5c-3.4 4.8-6.7 9.8-11 13.9-3 3-7.3 5.6-11.6 3.5a21 21 0 0 1-7.6-8.2c-.6-1-2.6-1-2.8.4-.4 2.7-.3 5.6-.8 8.3a9.3 9.3 0 0 1-1.4 3.7 4.3 4.3 0 0 1-3.4 2 67 67 0 0 1-25.5-2c-2-.6-2.5 2.1-.8 2.8a59.2 59.2 0 0 1 31 29.3c.8 1.7 3.4.2 2.6-1.5Z" class="cls-4"/>
  <path d="M233.7 156.6c16.3-1.2 33.4-2.9 49 2.8l-1-1c3.7 21 2.6 42.4 1 63.6l-1.5 18c-.2 1.9 2.8 1.9 3 0 1.7-21.5 4-43 2.5-64.5a166.2 166.2 0 0 0-2-18 1.5 1.5 0 0 0-1.1-1c-16-5.7-33.3-4.1-49.8-2.8-2 .1-2 3.1 0 3Z" class="cls-5"/>
  <path d="M229.2 140.8c1.9-2 3.7-4.5 6-6.2a9.6 9.6 0 0 1 4-1.7 32.7 32.7 0 0 1 5.1 0 162.5 162.5 0 0 1 25.2 1.8 300 300 0 0 1 24.7 5 5.4 5.4 0 0 0 1.4.3c.4 0 .1 0 .1-.2s-.3-.3 0 0v-.2c0 .2-.1.2 0 0a16.5 16.5 0 0 1-.7 1.6 40.5 40.5 0 0 1-3.4 5.4l-4.8 6.2a23 23 0 0 0-3 5c-.8 1.7 2 2.5 2.8.7l.3-.6.7-1 1.8-2.6 4.6-6a40.1 40.1 0 0 0 3.7-5.6c.7-1.4 1.4-3.3.4-4.7a2.4 2.4 0 0 0-1.4-.8l-3.6-.8c-2.1-.6-4.3-1-6.5-1.5q-6.6-1.4-13.2-2.5a174 174 0 0 0-26.6-2.4h-4a25.9 25.9 0 0 0-3-.1 12 12 0 0 0-5 1.5c-3.1 1.8-5.4 4.7-7.8 7.4-1.3 1.4.8 3.5 2.1 2Z" class="cls-5"/>
  <path d="M297 140.4a30.6 30.6 0 0 0 5.8 3.5c1.6.9 3.6 2 3.8 4l.7-1.2c-7.8 4.5-16 8.1-24 12.3-1.7.9-.2 3.5 1.5 2.6 8-4.2 16.2-7.9 24-12.3a1.5 1.5 0 0 0 .8-1.3c-.6-5.9-6.8-6.5-10.5-9.8-1.4-1.2-3.6.9-2.1 2.2Z" class="cls-5"/>
  <path d="M306.3 147.3c1 15.3 2 30.6 2.4 46 .1 2 3.1 2 3 0-.5-15.3-1.4-30.7-2.4-46 0-2-3.1-2-3 0Zm-68-20.9c-.2-3.1-1.9-6.4-1.3-9.5l-1.4 1.1a157.2 157.2 0 0 1 32.7.4 167.4 167.4 0 0 1 24 4.7c1 .2 1.5.1 2 1a7 7 0 0 1 .6 2.2c.7 4.1-.3 8.3.7 12.4.5 1.8 3.4 1 3-.8-1-3.8-.2-7.8-.7-11.6a9 9 0 0 0-1.8-4.9 5.8 5.8 0 0 0-3-1.3l-4.3-1a168.5 168.5 0 0 0-34-4.7 153.2 153.2 0 0 0-19.2.5 1.5 1.5 0 0 0-1.5 1.1c-.6 3.6 1 6.9 1.2 10.3.2 2 3.2 2 3 0Z" class="cls-5"/>
  <path d="M326 242.3a108 108 0 0 1 21.6-53.6 86.2 86.2 0 0 1 10.6-11.2c1.4-1.3-.7-3.4-2.1-2.1-14.8 13-24.7 31-29.8 49.8a118.6 118.6 0 0 0-3.3 17.1c-.2 2 2.8 1.9 3 0Z" class="cls-6"/>
  <path d="M332.9 213a21.8 21.8 0 0 0-8.7-16.3 1.6 1.6 0 0 0-2.2 0 1.5 1.5 0 0 0 0 2.2 19 19 0 0 1 8 14.1c0 2 3 2 3 0Zm6.3-11.7a51 51 0 0 1 16.1-4.5 1.6 1.6 0 0 0 1.5-1.5 1.5 1.5 0 0 0-1.5-1.5 55.5 55.5 0 0 0-17.6 5 1.5 1.5 0 0 0-.5 2 1.5 1.5 0 0 0 2 .5Zm5.8-22.7a86.6 86.6 0 0 0 2.3-15.3c.1-2-2.9-2-3 0a82.2 82.2 0 0 1-2.2 14.5c-.5 1.8 2.4 2.6 2.9.8Z" class="cls-6"/>
  <path d="M343.6 232.3a29.9 29.9 0 0 1 9.5-18.1c5-4.9 11-8.5 17-12.3a115.6 115.6 0 0 0 12.6-9.5l3.7-3.4a21.6 21.6 0 0 0 5.8-17.3 17 17 0 0 0-13.2-15l1 2c1-3.6 1.3-7.5-.4-11a11.7 11.7 0 0 0-6.9-5.6 28.4 28.4 0 0 0-20.6 2.3 23 23 0 0 0-9 7.3l2.7.7c0-3.5-1.4-7.2-4.8-8.8-3.2-1.6-7-1.3-10.2-.3-7.7 2.4-14.7 9.2-15.1 17.5-.3 5.9 2.9 11.2 6.9 15.2a1.5 1.5 0 0 0 2.1-2.1c-3-3.1-5.8-7-6-11.6a14 14 0 0 1 3.2-9.4 20.5 20.5 0 0 1 8.1-6.1c2.7-1.2 5.8-1.8 8.5-1a5.8 5.8 0 0 1 3 2 8 8 0 0 1 1.4 4.7 1.5 1.5 0 0 0 2.7.7c3.5-5 10-7.6 15.8-8.7 5-.8 12-.7 15 3.7 2 2.8 1.6 6.5.7 9.7a1.5 1.5 0 0 0 1 1.8 13.9 13.9 0 0 1 11 12 18.6 18.6 0 0 1-5.6 15.9c-2.4 2.2-4.8 4.4-7.4 6.4-2.8 2.1-5.7 4-8.6 6-5.7 3.7-11.6 7.3-16.6 12a33 33 0 0 0-10.4 20.3c-.2 2 2.8 2 3 0Z" class="cls-6"/>
  <text stroke="#000" stroke-miterlimit="10" stroke-width=".8" font-family="ErasITC-Medium,Eras Medium ITC" font-size="56" font-weight="500" transform="translate(163.2 317.6)">Craig’s<tspan x="0" y="56" letter-spacing=".4em">	</tspan><tspan x="36" y="56">Grocery</tspan></text>
  <path d="M129.5 258a264.3 264.3 0 0 1 53.7-9 373.2 373.2 0 0 1 53.8.7 751 751 0 0 1 54 6.7l27.3 4.5 13.3 2.3a61.5 61.5 0 0 0 6.2.7 25.2 25.2 0 0 0 5.8 0 8.2 8.2 0 0 0 4.7-2.5 293 293 0 0 1 4.7-4.6q4.8-4.7 9.7-9.1c6.6-5.9 13.2-11.7 19.6-17.7l4.9-4.6c1.3-1.4-.8-3.5-2.2-2.2-12.5 12.4-26.3 23.3-38.6 36-2.8 2.8-7.1 1.7-10.7 1.6a56 56 0 0 1-6.7-1l-6.7-1.2-26.8-4.5a803.9 803.9 0 0 0-53.5-7 392.2 392.2 0 0 0-53.3-1.4 273.2 273.2 0 0 0-53.4 7.5l-6.6 1.8a1.5 1.5 0 0 0 .8 2.9Z" class="cls-1"/>
  <path d="M359 222.3a91 91 0 0 1 26.7 2.8c1.9.5 2.7-2.4.8-2.9a93.7 93.7 0 0 0-27.4-3c-2 .2-2 3.2 0 3Z" class="cls-1"/>
  <path d="m175 324.3 97.3-.2h13.5a93.3 93.3 0 0 1 12.3.4l-6-.8a23.3 23.3 0 0 1 5.5 1.4l-5.3-2.3a16 16 0 0 1 3 1.8L291 321a5.4 5.4 0 0 1 .8.8l-3.6-4.6a3 3 0 0 1 .4.6l-2.3-5.3a2.3 2.3 0 0 1 .2.7l-.8-6a2.7 2.7 0 0 1 0 .7l.8-6a3 3 0 0 1-.2.6l2.3-5.4a6 6 0 0 1-.5 1l3.5-4.6c-1.7 2.2-4.2 3.8-6.4 5.4l4.6-3.5a86.9 86.9 0 0 1-18.5 11.5l5.4-2.3c-6.4 2.7-13.3 3.7-20 5a107.4 107.4 0 0 0-23.9 8 77.6 77.6 0 0 0-8.7 4.7 69.1 69.1 0 0 0-11.6 8.6 31 31 0 0 0-10 22.2 25.2 25.2 0 0 0 12.4 21.2 29.5 29.5 0 0 0 14.6 3.7c14.8.3 29.6.3 44.3.4l44.4.4 49.9.5a25 25 0 0 0 15.9-6.6 25 25 0 0 0 6.6-15.9 22.7 22.7 0 0 0-6.6-15.9 23.6 23.6 0 0 0-16-6.6l-54.8-.5-54.8-.5-15.2-.2h-7.8c-2.4 0-4.9 0-7.3-.2l6 .8a7 7 0 0 1-1.5-.4l5.3 2.3a3.5 3.5 0 0 1-.5-.3l4.5 3.5a3.2 3.2 0 0 1-.6-.6l3.5 4.6-.1-.3 2.2 5.4a2.1 2.1 0 0 1-.2-.8l.8 6a3.4 3.4 0 0 1 0-.8l-.8 6a6.7 6.7 0 0 1 .5-1.5l-2.3 5.4a13.3 13.3 0 0 1 1.4-2.3l-3.5 4.5a20 20 0 0 1 3.3-3.2l-4.5 3.5a72.1 72.1 0 0 1 15.7-9L252 358a93 93 0 0 1 19-5.3c3.4-.7 6.8-1.3 10.2-2.2a85.1 85.1 0 0 0 30.4-15.5l7.8-6a27.7 27.7 0 0 0 3.8-3.3 29.8 29.8 0 0 0 4.3-5.7 25.3 25.3 0 0 0 3.3-12.4 22.8 22.8 0 0 0-1-6.7v-.3l-2.3-5.4a27.5 27.5 0 0 0-9.3-9.5 39.6 39.6 0 0 0-8.5-4 23 23 0 0 0-4.7-1.3 87.5 87.5 0 0 0-14.7-1.4h-21.8l-44 .1-49.5.1a16.9 16.9 0 0 0-8.7 2 20.2 20.2 0 0 0-11.9 11.9 17 17 0 0 0-2 8.6c.4 5.8 2.3 11.9 6.7 16a23.4 23.4 0 0 0 15.9 6.5Z" class="cls-4" opacity=".2"/>
</svg>
