<?xml version="1.0" encoding="utf-8"?>
<!-- Generator: Adobe Illustrator 26.0.0, SVG Export Plug-In . SVG Version: 6.00 Build 0)  -->
<svg version="1.1" id="Layer_1" xmlns="http://www.w3.org/2000/svg" xmlns:xlink="http://www.w3.org/1999/xlink" x="0px" y="0px"
	 viewBox="0 0 512 512" style="enable-background:new 0 0 512 512;" xml:space="preserve">
<style type="text/css">
	.st0{fill:#8C6239;}
	.st1{fill:#F15A24;}
	.st2{fill:#39B54A;}
	.st3{fill:#8CC63F;}
	.st4{fill:#29ABE2;}
	.st5{font-family:'Gabriola';}
	.st6{font-size:100px;}
	.st7{fill:none;stroke:#000000;stroke-width:5;stroke-miterlimit:10;}
	.st8{fill:none;stroke:#000000;stroke-miterlimit:10;}
</style>
<g>
	<g>
		<path d="M416,174c-4.16-0.43-8.33-0.85-12.48-1.39c-1.86-0.24-4.58-0.61-6.72-1.24c-0.34-0.1-0.67-0.24-1.01-0.34
			c-0.29-0.08,0.42,0.19,0.39,0.17c-0.03-0.02-0.23-0.09-0.23-0.11c0-0.02-0.32-0.19-0.35-0.2c-0.46-0.15,0.46,0.41,0.25,0.2
			c-0.33-0.32,0.2,0.28,0.24,0.36c-0.26-0.42,0.18,0.53,0.15,0.42c-0.12-0.43,0.05,0.9,0.06,0.44c0-0.18-0.17,0.93-0.06,0.5
			c0.13-0.49-0.31,0.73-0.15,0.36c0.04-0.09,0.1-0.18,0.15-0.25c0.17-0.24-0.57,0.58-0.12,0.16c0.52-0.49,1.01-0.97,1.56-1.43
			c0.36-0.3-0.48,0.35,0.07-0.05c0.22-0.16,0.44-0.33,0.67-0.49c0.47-0.34,0.94-0.67,1.41-1c1.22-0.85,2.45-1.67,3.68-2.5
			c2.58-1.74,1.43-5.28-1.51-5.59c-7.01-0.74-14.14-0.6-21.18-0.56c-12.41,0.08-24.82,0.41-37.23,0.75
			c-17.86,0.49-35.71,1.04-53.57,1.56c-23.11,0.68-46.21,1.32-69.32,1.88c-28.35,0.69-56.7,1.27-85.05,1.71
			c-3.85,0.06-7.7,0.12-11.55,0.18c-3.86,0.06-3.87,6.06,0,6c29.08-0.43,58.15-0.98,87.22-1.67c23.68-0.56,47.35-1.2,71.03-1.88
			c18.51-0.54,37.03-1.11,55.54-1.63c13.1-0.37,26.2-0.73,39.31-0.87c7.68-0.08,15.43-0.22,23.1,0.37c0.57,0.04,1.14,0.1,1.71,0.16
			c-0.5-1.86-1.01-3.73-1.51-5.59c-2.31,1.56-4.64,3.09-6.83,4.81c-1.37,1.08-2.77,2.35-3.23,4.1c-1.42,5.38,6.51,6.34,9.97,6.85
			c5.18,0.77,10.4,1.28,15.6,1.82c1.61,0.17,3-1.5,3-3C419,175.24,417.62,174.17,416,174L416,174z"/>
	</g>
</g>
<g>
	<g>
		<path d="M125.55,169.38c3.11-4.15,6.17-8.34,9.31-12.48c2.34-3.08,5.04-6.52,7.88-9.68c2.62-2.92,5.43-5.67,8.48-8.13
			c0.14-0.11,0.28-0.23,0.43-0.34c0.71-0.56-0.46,0.35,0.26-0.2c0.37-0.28,0.73-0.55,1.11-0.82c0.83-0.61,1.68-1.19,2.54-1.75
			c1.77-1.16,3.6-2.23,5.47-3.22c5-2.65,9.85-4.54,15.27-6.35c1.54-0.52,2.54-2.07,2.1-3.69c-0.41-1.5-2.15-2.61-3.69-2.1
			c-9.11,3.06-18.12,6.89-25.82,12.75c-6.94,5.29-12.53,11.83-17.83,18.72c-3.62,4.71-7.12,9.51-10.68,14.27
			c-0.97,1.3-0.21,3.35,1.08,4.1C122.98,171.35,124.58,170.68,125.55,169.38L125.55,169.38z"/>
	</g>
</g>
<g>
	<g>
		<path d="M153,329c27.73-0.96,55.46-1.87,83.2-2.66c19.53-0.56,39.07-1.06,58.6-1.39c12.73-0.22,25.46-0.38,38.19-0.29
			c7.29,0.05,14.61,0.14,21.89,0.63c1.17,0.08,2.33,0.17,3.49,0.28c0.48,0.05,0.97,0.1,1.45,0.16c0.22,0.03,0.44,0.05,0.66,0.08
			c0.78,0.09-0.96-0.14-0.12-0.02c1.25,0.19,2.51,0.38,3.72,0.77c0.2,0.06,0.4,0.16,0.6,0.21c-0.64-0.18-0.72-0.39-0.2-0.06
			c0.11,0.07,0.25,0.18,0.37,0.23c-0.04-0.01-0.76-0.68-0.32-0.22c0.36,0.38-0.56-0.84-0.28-0.35c0.24,0.41-0.34-1-0.2-0.44
			c0.1,0.4-0.08-1.12-0.08-0.53c-0.01,0.49,0.21-1.08,0.06-0.52c-0.17,0.66,0.55-0.86,0.06-0.16c-0.28,0.39-0.78,0.92,0.05-0.01
			c-0.35,0.39-0.68,0.8-1.01,1.21c-1.26,1.54-2.32,3.32-1.76,5.4c0.69,2.58,3.36,3.81,5.66,4.61c4.2,1.46,8.77,1.97,13.15,2.52
			c1.6,0.2,3.2,0.38,4.8,0.55c1.61,0.17,3-1.5,3-3c0-1.76-1.38-2.83-3-3c-1.67-0.17-3.33-0.36-4.99-0.57
			c-0.35-0.04-1.74-0.26-0.38-0.05c-0.35-0.05-0.69-0.09-1.04-0.14c-0.65-0.09-1.29-0.19-1.94-0.29c-2.03-0.32-4.07-0.69-6.06-1.22
			c-0.7-0.19-1.41-0.39-2.09-0.63c-0.27-0.1-0.54-0.24-0.82-0.31c1.27,0.35,0.4,0.18,0-0.03c-0.19-0.1-0.38-0.21-0.57-0.32
			c-0.56-0.32-0.31-0.42,0.12,0.12c-0.08-0.11-0.24-0.24-0.35-0.32c-0.5-0.4,0.52,0.78,0.21,0.27c-0.34-0.55,0.11,0.31,0.13,0.38
			c-0.03-0.11-0.06-0.21-0.08-0.32c0.25,1.26,0.08,0.84,0.1,0.45c0.02-0.44-0.21,1.11-0.05,0.47c0.2-0.82-0.5,0.78-0.04,0.07
			c0.14-0.21,0.28-0.42,0.42-0.64c0.28-0.44-0.68,0.82-0.22,0.29c0.09-0.1,0.17-0.2,0.25-0.3c0.17-0.21,0.35-0.41,0.52-0.61
			c0.46-0.55,0.93-1.11,1.27-1.74c1.24-2.33,0.31-4.86-1.98-6.08c-2.71-1.45-6.18-1.63-9.16-1.92c-6.22-0.6-12.49-0.72-18.73-0.83
			c-11.28-0.18-22.57-0.09-33.85,0.05c-17.72,0.23-35.44,0.64-53.16,1.1c-25.62,0.67-51.24,1.48-76.86,2.34
			c-7.55,0.25-15.09,0.51-22.64,0.77C149.15,323.13,149.13,329.13,153,329L153,329z"/>
	</g>
</g>
<g>
	<g>
		<path d="M386.85,81.14c-5.35,0.09-10.7,0.25-16.03,0.68c-3.47,0.28-6.99,0.62-10.39,1.4c-1.9,0.43-4.06,1.03-5.48,2.45
			c-1.74,1.73-1.63,4.28,0,6.04c1.25,1.35,3.04,2.1,4.7,2.78c2.05,0.84,4.18,1.46,6.32,2.01c6.01,1.55,12.17,2.51,18.33,3.19
			c6.04,0.67,12.17,1.05,18.24,0.65c0.64-0.04,1.27-0.1,1.91-0.16c1.56-0.16,3.08-1.27,3-3c-0.07-1.49-1.33-3.17-3-3
			c-5.62,0.57-11.34,0.33-16.96-0.17c-1.54-0.14-3.07-0.3-4.61-0.48c-0.36-0.04-0.72-0.09-1.08-0.13c-0.19-0.02-0.39-0.05-0.58-0.08
			c-0.1-0.01-0.42-0.06,0.07,0.01c0.54,0.07,0.02,0-0.1-0.01c-0.74-0.1-1.48-0.21-2.21-0.32c-2.84-0.43-5.66-0.95-8.46-1.57
			c-2.32-0.52-4.64-1.1-6.9-1.85c-0.48-0.16-0.96-0.33-1.44-0.5c-0.2-0.08-0.41-0.16-0.61-0.24c-0.1-0.04-0.21-0.09-0.31-0.13
			c-0.37-0.14,0.79,0.35,0.33,0.14c-0.67-0.31-1.33-0.61-1.95-1.01c-0.12-0.08-0.23-0.16-0.35-0.24c-0.23-0.15,0.71,0.64,0.22,0.16
			c-0.08-0.08-0.16-0.16-0.24-0.24c-0.44-0.4,0.37,0.53,0.24,0.32c-0.39-0.63,0.19,0.83,0.08,0.2c0.02,0.11,0.09,1.04,0.09,0.53
			c0-0.27-0.19,1.01-0.08,0.64c0.12-0.39-0.25,0.58-0.24,0.54c0.03-0.08,0.08-0.15,0.13-0.22c-0.08,0.11-0.64,0.74-0.23,0.34
			c0.42-0.4-0.66,0.42-0.3,0.22c0.12-0.07,0.24-0.16,0.36-0.23c0.14-0.08,0.29-0.15,0.43-0.22c0.59-0.3-0.78,0.29-0.13,0.06
			c0.4-0.14,0.81-0.28,1.22-0.4c1.12-0.32,2.27-0.54,3.42-0.74c0.33-0.06,0.67-0.11,1-0.16c0.19-0.03,0.38-0.05,0.57-0.08
			c0.1-0.02,0.42-0.05-0.06,0.01c-0.56,0.07,0.04,0,0.12-0.01c0.84-0.11,1.69-0.2,2.53-0.29c4.67-0.47,9.36-0.68,14.04-0.81
			c1.47-0.04,2.95-0.07,4.42-0.1c1.57-0.03,3.07-1.36,3-3C389.77,82.54,388.53,81.11,386.85,81.14L386.85,81.14z"/>
	</g>
</g>
<g>
	<g>
		<path d="M352.68,93.28c-0.41,18.17,24.01,15.85,36.15,16.2c3.79,0.11,7.72,0.23,11.37,1.37c1.85,0.58,2.64-2.32,0.8-2.89
			c-3.11-0.98-6.45-1.23-9.69-1.39c-3.87-0.19-7.75-0.17-11.63-0.26c-3.8-0.09-7.63-0.23-11.38-0.88c-3.1-0.54-6.38-1.38-8.92-3.33
			c-2.8-2.15-3.79-5.4-3.71-8.82C355.73,91.35,352.73,91.35,352.68,93.28L352.68,93.28z"/>
	</g>
</g>
<g>
	<g>
		<path d="M350.92,109.89c0.43,1.27,0.79,2.55,1.04,3.86c0.05,0.28,0.1,0.56,0.14,0.84c0.07,0.44-0.05-0.54-0.01-0.1
			c0.01,0.12,0.03,0.23,0.04,0.34c0.05,0.59,0.09,1.18,0.09,1.77c0,0.49-0.03,0.97-0.07,1.46c-0.01,0.13-0.04,0.27-0.04,0.4
			c0,0,0.12-0.62,0.04-0.3c-0.07,0.28-0.1,0.58-0.16,0.87c-0.09,0.43-0.21,0.87-0.34,1.29c-0.07,0.21-0.14,0.41-0.21,0.62
			c-0.04,0.12-0.1,0.23-0.13,0.35c-0.09,0.34,0.33-0.66,0.05-0.12c-0.41,0.79-0.8,1.57-1.31,2.3c-0.12,0.18-0.25,0.34-0.37,0.52
			c0.51-0.73,0.03-0.04-0.1,0.11c-0.3,0.36-0.61,0.7-0.93,1.04c-0.66,0.69-1.36,1.33-2.09,1.93c-0.17,0.14-0.35,0.28-0.53,0.43
			c-0.4,0.34,0.46-0.33-0.09,0.07c-0.43,0.31-0.85,0.63-1.28,0.93c-6.66,4.65-14.81,7.78-19.98,14.29
			c-3.33,4.19-4.79,9.28-4.22,14.61c0.17,1.61,1.26,3,3,3c1.49,0,3.17-1.38,3-3c-0.12-1.16-0.17-2.32-0.1-3.48
			c0.02-0.29,0.05-0.57,0.07-0.86c0.04-0.56-0.12,0.62,0.03-0.14c0.1-0.5,0.19-1,0.33-1.49c0.13-0.48,0.3-0.94,0.46-1.41
			c0.21-0.65-0.2,0.38,0.03-0.09c0.11-0.23,0.21-0.47,0.33-0.69c0.43-0.86,0.96-1.63,1.5-2.42c0.25-0.36-0.39,0.46,0.12-0.14
			c0.14-0.17,0.29-0.34,0.43-0.51c0.32-0.36,0.65-0.71,0.99-1.05c0.69-0.69,1.43-1.34,2.19-1.96c0.14-0.11,0.86-0.66,0.18-0.15
			c0.19-0.14,0.37-0.28,0.56-0.42c0.41-0.3,0.82-0.59,1.24-0.88c0.85-0.58,1.71-1.14,2.59-1.68c6.75-4.2,15.32-7.94,18.98-15.49
			c2.51-5.17,2.14-10.9,0.33-16.24c-0.52-1.53-2.06-2.54-3.69-2.1C351.52,106.61,350.4,108.35,350.92,109.89L350.92,109.89z"/>
	</g>
</g>
<g>
	<g>
		<path d="M273.59,153.52c2.34-15.66,5.24-31.26,9.36-46.55c4.35-16.14,9.8-31.5,18.01-45.93c3.97-6.98,8.29-13.24,13.47-18.99
			c2.61-2.9,5.41-5.64,8.4-8.16c2.69-2.27,5.52-4.33,8.83-6.34c1.63-0.99,3.29-1.91,5-2.77c1.81-0.91,3.45-1.64,4.98-2.25
			c0.87-0.34,1.94-0.57,2.75-1.02c0.2-0.11,0.39-0.22,0.1-0.13c0.23-0.07,0.53-0.06,0.77-0.08c0.55-0.05,1.1-0.09,1.66-0.11
			c0.86-0.04,1.72-0.04,2.58,0c0.46,0.02,0.91,0.05,1.37,0.1c0.18,0.02,0.36,0.04,0.53,0.06c0.87,0.09-0.6-0.12,0.25,0.04
			c1.57,0.3,3.05,0.7,4.55,1.24c0.75,0.26-0.55-0.28,0.16,0.07c0.14,0.07,0.29,0.13,0.43,0.2c0.32,0.15,0.63,0.31,0.93,0.48
			c0.67,0.37,1.32,0.77,1.95,1.21c0.15,0.11,0.31,0.22,0.46,0.34c-0.52-0.38-0.18-0.14-0.07-0.05c0.29,0.25,0.58,0.48,0.86,0.74
			c0.56,0.51,1.09,1.04,1.6,1.61c0.23,0.25,0.44,0.52,0.67,0.78c0.11,0.13,0.43,0.56,0.03,0.02c0.09,0.12,0.19,0.24,0.27,0.37
			c0.45,0.63,0.88,1.27,1.28,1.93c0.36,0.61,0.7,1.22,1.02,1.86c0.18,0.36,0.34,0.72,0.51,1.08c0.07,0.14,0.13,0.29,0.19,0.44
			c-0.29-0.65,0.01,0.03,0.07,0.17c0.58,1.5,1.08,3.02,1.47,4.58c0.41,1.61,0.72,3.24,0.94,4.89c-0.09-0.68,0.05,0.42,0.07,0.62
			c0.04,0.39,0.08,0.78,0.11,1.17c0.08,0.87,0.13,1.75,0.16,2.63c0.13,3.41-0.04,6.82-0.48,10.2c-0.07,0.52,0.11-0.72-0.02,0.12
			c-0.03,0.17-0.05,0.35-0.08,0.52c-0.07,0.43-0.14,0.86-0.21,1.29c-0.15,0.85-0.31,1.7-0.5,2.55c-0.34,1.57-0.74,3.12-1.21,4.66
			c-0.45,1.46-0.96,2.91-1.54,4.33c-0.61,1.5,0.66,3.3,2.1,3.69c1.72,0.47,3.08-0.59,3.69-2.1c2.63-6.47,3.94-13.52,4.23-20.49
			c0.29-6.87-0.46-14.06-3.06-20.48c-2.49-6.16-6.68-11.71-12.85-14.52c-3.47-1.58-7.21-2.33-11.01-2.35
			c-2.19-0.01-4.39,0.13-6.46,0.88c-2.02,0.73-4.01,1.56-5.96,2.45c-14.92,6.83-26.8,18.76-35.75,32.32
			c-9.48,14.36-15.96,30.61-20.89,47.03c-4.77,15.9-8.06,32.21-10.66,48.59c-0.29,1.83-0.57,3.66-0.85,5.5
			c-0.24,1.6,0.4,3.22,2.1,3.69C271.31,156.01,273.35,155.14,273.59,153.52L273.59,153.52z"/>
	</g>
</g>
<g>
	<g>
		<path d="M238.11,151.36c-0.51-4.41-1.1-8.82-1.71-13.22c-0.3-2.18-0.6-4.36-0.89-6.55c-0.02-0.13-0.03-0.25-0.05-0.38
			c-0.06-0.46,0.07,0.5,0,0.04c-0.03-0.25-0.07-0.51-0.1-0.76c-0.07-0.55-0.15-1.1-0.22-1.65c-0.14-1.1-0.29-2.2-0.42-3.3
			c-1.07-8.54-1.96-17.14-1.88-25.75c0.02-1.96,0.09-3.92,0.24-5.88c0.07-0.94,0.16-1.88,0.27-2.81c0.02-0.21,0.05-0.42,0.08-0.64
			c0.08-0.62-0.02,0.14,0.01-0.04c0.07-0.48,0.14-0.97,0.22-1.45c0.29-1.72,0.66-3.43,1.14-5.1c0.23-0.8,0.48-1.59,0.76-2.38
			c0.14-0.38,0.29-0.76,0.43-1.14c0.15-0.37,0.17-0.36-0.02,0.03c0.09-0.19,0.17-0.39,0.26-0.59c0.65-1.41,1.4-2.78,2.29-4.06
			c0.18-0.27,0.88-1.12,0.31-0.45c0.25-0.29,0.47-0.59,0.72-0.87c0.5-0.57,1.02-1.11,1.58-1.63c0.28-0.26,0.56-0.51,0.86-0.75
			c0.14-0.11,0.28-0.22,0.41-0.33c-0.41,0.35-0.29,0.21,0.03-0.01c0.66-0.47,1.34-0.91,2.04-1.31c0.7-0.4,1.43-0.74,2.17-1.07
			c-0.78,0.34,0.26-0.09,0.54-0.19c0.43-0.16,0.87-0.3,1.31-0.44c0.86-0.26,1.73-0.47,2.61-0.65c0.42-0.08,0.85-0.16,1.28-0.23
			c0.33-0.05,0.6-0.08,0.08-0.02c0.3-0.04,0.6-0.07,0.9-0.11c2.12-0.22,4.26-0.25,6.39-0.16c1.19,0.05,2.38,0.15,3.56,0.28
			c0.29,0.03,0.57,0.06,0.86,0.1c0.15,0.02,0.85,0.11,0.37,0.04c0.7,0.1,1.4,0.21,2.1,0.32c2.85,0.48,5.67,1.12,8.46,1.86
			c1.56,0.41,3.1,0.86,4.64,1.34c3.7,1.14,5.28-4.65,1.6-5.79c-10.07-3.09-21.09-5.5-31.62-3.48c-7.17,1.38-13.39,5.49-17.19,11.75
			c-3.9,6.44-5.15,14.2-5.55,21.6c-0.47,8.64,0.28,17.32,1.26,25.9c0.54,4.67,1.16,9.33,1.8,13.99c0.31,2.25,0.62,4.51,0.92,6.76
			c0.03,0.25,0.1,0.74,0.03,0.19c0.04,0.29,0.08,0.58,0.12,0.86c0.08,0.57,0.15,1.14,0.23,1.72c0.14,1.05,0.27,2.1,0.4,3.15
			c0.13,1.07,0.26,2.14,0.38,3.21c0.19,1.61,1.25,3,3,3C236.59,154.36,238.3,152.98,238.11,151.36L238.11,151.36z"/>
	</g>
</g>
<g>
	<g>
		<path d="M240.16,62.45c-4.37-13.51-13.3-25.2-25.17-32.99c-0.77,1.83-1.54,3.66-2.31,5.48c2.24,0.41,4.45,0.98,6.61,1.7
			c1,0.33,2,0.7,2.98,1.09c0.22,0.09,0.44,0.18,0.66,0.27c0.25,0.1,0.63,0.26,0.15,0.06c0.49,0.21,0.98,0.42,1.47,0.64
			c3.11,1.39,6.11,3.02,9.24,4.37c2.88,1.24,5.86,2.24,9.03,1.67c3.17-0.57,5.55-3.08,7.11-5.74c3.03-5.15,4.36-11.37,5.59-17.15
			c-1.93,0-3.86,0-5.79,0c1.35,8.45,5.75,17.36,15.04,18.82c8.21,1.29,16.5-2.53,23.19-6.96c4.09-2.71,7.92-5.87,11.34-9.39
			c-1.41-1.41-2.83-2.83-4.24-4.24c-8.17,9.97-14.74,21.01-19.64,32.93c-0.62,1.5,0.67,3.3,2.1,3.69c1.72,0.47,3.07-0.59,3.69-2.1
			c4.48-10.89,10.63-21.17,18.09-30.28c1.03-1.25,1.23-3.02,0-4.24c-1.14-1.14-3.11-1.16-4.24,0c-1.35,1.38-2.76,2.71-4.22,3.97
			c-0.75,0.65-1.52,1.28-2.31,1.9c-0.46,0.36-0.14,0.11-0.04,0.03c-0.22,0.17-0.44,0.33-0.65,0.5c-0.44,0.33-0.88,0.65-1.33,0.97
			c-1.63,1.15-3.31,2.23-5.05,3.21c-0.81,0.46-1.63,0.89-2.47,1.3c-0.43,0.21-0.86,0.42-1.3,0.61c-0.16,0.07-0.32,0.14-0.47,0.21
			c-0.32,0.14-0.32,0.14,0.01,0c-0.16,0.07-0.31,0.13-0.47,0.19c-1.67,0.67-3.39,1.22-5.15,1.59c-0.38,0.08-0.76,0.15-1.15,0.22
			c-0.15,0.03-0.93,0.11-0.11,0.02c-0.15,0.02-0.3,0.04-0.45,0.05c-0.88,0.07-1.76,0.12-2.64,0.09c-0.36-0.01-0.71-0.06-1.07-0.08
			c-0.73-0.04,0.67,0.15-0.04,0c-0.14-0.03-0.28-0.05-0.41-0.07c-0.82-0.16-1.6-0.41-2.39-0.69c0.72,0.25-0.17-0.08-0.42-0.21
			c-0.31-0.16-0.61-0.33-0.91-0.52c-0.3-0.19-0.59-0.39-0.87-0.6c0.64,0.47-0.45-0.42-0.64-0.6c-0.36-0.35-0.67-0.73-1.01-1.09
			c-0.09-0.09-0.35-0.45,0.03,0.05c-0.2-0.26-0.38-0.52-0.56-0.79c-0.58-0.87-1.08-1.8-1.51-2.76c-0.38-0.84,0.2,0.55-0.14-0.33
			c-0.11-0.28-0.21-0.55-0.31-0.83c-0.21-0.58-0.39-1.18-0.56-1.77c-0.41-1.44-0.7-2.91-0.94-4.39c-0.47-2.94-5.19-2.78-5.79,0
			c-0.64,3-1.34,5.99-2.23,8.92c-0.33,1.1-0.7,2.2-1.1,3.27c-0.09,0.24-0.19,0.48-0.28,0.72c-0.04,0.1-0.37,0.87-0.07,0.19
			c-0.21,0.48-0.43,0.96-0.67,1.44c-0.35,0.7-0.74,1.39-1.18,2.04c-0.1,0.14-0.21,0.28-0.3,0.43c-0.34,0.51,0.49-0.5,0.06-0.08
			c-0.26,0.25-0.47,0.54-0.73,0.79c-0.24,0.23-1.01,0.68-0.14,0.17c-0.19,0.11-0.36,0.25-0.55,0.37c-0.11,0.06-0.23,0.12-0.34,0.19
			c-0.46,0.29,0.16,0.04,0.26-0.09c-0.12,0.16-0.64,0.21-0.82,0.26c-0.11,0.03-0.25,0.03-0.36,0.08c-0.46,0.18,0.8,0,0.31-0.04
			c-0.24-0.02-0.5,0.03-0.75,0.03c-0.26,0-0.51-0.04-0.77-0.04c-0.54-0.01,0.8,0.17,0.27,0.04c-0.18-0.04-0.36-0.06-0.54-0.1
			c-0.57-0.12-1.13-0.28-1.68-0.47c-0.3-0.1-0.59-0.21-0.88-0.32c-0.24-0.09-1.45-0.61-0.51-0.19c-2.95-1.32-5.82-2.81-8.76-4.15
			c-4.41-2-8.94-3.67-13.71-4.55c-3.31-0.61-5.25,3.55-2.31,5.48c10.52,6.9,18.54,17.43,22.41,29.4c0.5,1.54,2.08,2.54,3.69,2.1
			C239.58,65.72,240.66,64,240.16,62.45L240.16,62.45z"/>
	</g>
</g>
<g>
	<g>
		<path d="M194.6,152.72c-0.4-5.89-4.03-10.98-7.17-15.76c-1.56-2.38-3.18-4.78-4.34-7.38c-0.87-1.95-1.5-4.18-0.88-6.29
			c0.93-3.16,4.31-4.99,7.08-6.28c1.75-0.82,0.23-3.4-1.51-2.59c-2.96,1.38-6.06,3.27-7.68,6.23c-1.27,2.31-1.37,4.94-0.7,7.45
			c1.53,5.79,5.83,10.59,8.82,15.66c1.62,2.74,3.17,5.74,3.4,8.97C191.73,154.64,194.73,154.65,194.6,152.72L194.6,152.72z"/>
	</g>
</g>
<g>
	<g>
		<path d="M185.3,112.99c-1.21-0.25-2.39-0.62-3.55-1.07c-0.13-0.05-1.18-0.49-0.5-0.19c-0.31-0.13-0.61-0.27-0.91-0.41
			c-0.71-0.33-1.41-0.68-2.1-1.04c-1.4-0.74-2.76-1.55-4.08-2.42c-0.69-0.45-1.37-0.92-2.04-1.41c-0.32-0.23-0.63-0.46-0.95-0.7
			c-0.45-0.34,0.53,0.43-0.21-0.17c-0.19-0.15-0.39-0.31-0.58-0.46c-1.33-1.09-2.61-2.24-3.82-3.47c-0.54-0.55-1.07-1.12-1.57-1.7
			c-0.25-0.29-0.49-0.58-0.74-0.87c-0.12-0.15-0.24-0.29-0.35-0.44c0.35,0.44-0.14-0.19-0.21-0.28c-0.92-1.25-1.75-2.58-2.42-3.99
			c-0.07-0.15-0.14-0.31-0.21-0.46c-0.19-0.41,0.17,0.44,0.01,0.02c-0.13-0.35-0.26-0.69-0.38-1.05c-0.22-0.69-0.37-1.39-0.51-2.1
			c0.14,0.71-0.02-0.25-0.03-0.49c-0.02-0.39-0.02-0.77-0.01-1.16c0.01-0.25,0.17-1.18,0.02-0.47c0.08-0.38,0.15-0.77,0.25-1.14
			c0.11-0.38,0.24-0.76,0.39-1.13c-0.26,0.64,0.24-0.43,0.34-0.62c0.19-0.34,0.41-0.66,0.62-0.98c0.08-0.11,0.44-0.57,0.1-0.15
			c0.18-0.22,0.36-0.43,0.55-0.64c1.08-1.21,1.19-3.05,0-4.24c-1.1-1.1-3.16-1.21-4.24,0c-11.64,13.06,4.48,28.54,15.59,34.92
			c3.08,1.77,6.44,3.38,9.93,4.1c1.59,0.33,3.24-0.46,3.69-2.1C187.81,115.19,186.9,113.32,185.3,112.99L185.3,112.99z"/>
	</g>
</g>
<g>
	<g>
		<path d="M158.53,81.64c-1.08-1.42-1.96-2.95-2.69-4.57c0.27,0.6-0.21-0.53-0.27-0.71c-0.13-0.36-0.26-0.73-0.37-1.1
			c-0.27-0.86-0.5-1.74-0.69-2.63c-0.09-0.42-0.17-0.85-0.24-1.28c0,0-0.13-0.84-0.06-0.38c0.06,0.47-0.04-0.38-0.04-0.38
			c-0.1-0.95-0.16-1.91-0.18-2.87c-0.01-0.78,0-1.57,0.05-2.35c0.03-0.43,0.06-0.87,0.1-1.3c0.03-0.26,0.06-0.52,0.09-0.77
			c-0.07,0.54,0,0.01,0.04-0.23c0.27-1.71,0.69-3.4,1.27-5.04c0.12-0.35,0.26-0.69,0.39-1.04c0.28-0.77-0.27,0.54,0.08-0.19
			c0.07-0.15,0.13-0.3,0.2-0.44c0.37-0.79,0.79-1.57,1.25-2.31c0.21-0.33,0.42-0.66,0.65-0.97c0.09-0.13,0.18-0.25,0.27-0.38
			c0.44-0.63-0.42,0.45,0.1-0.12c0.51-0.56,0.99-1.13,1.54-1.65c0.27-0.25,0.56-0.49,0.84-0.73c-0.6,0.51,0.29-0.2,0.46-0.31
			c0.67-0.45,1.38-0.83,2.12-1.15c-0.71,0.31,0.4-0.12,0.63-0.2c0.39-0.12,0.79-0.22,1.2-0.31c0.22-0.05,0.45-0.08,0.67-0.12
			c-0.51,0.09-0.22,0.02,0.12,0c0.48-0.03,0.95-0.06,1.43-0.05c0.41,0.01,0.82,0.05,1.24,0.07c0.83,0.05-0.62-0.13,0.22,0.03
			c0.26,0.05,0.52,0.09,0.78,0.14c1.11,0.23,2.19,0.58,3.25,0.98c1.51,0.58,3.29-0.64,3.69-2.1c0.47-1.69-0.58-3.11-2.1-3.69
			c-3.85-1.48-8.22-1.98-12.2-0.71c-3.71,1.18-6.72,3.61-9.03,6.69c-4.82,6.43-6.08,15.15-4.93,22.94
			c0.65,4.36,2.26,8.71,4.94,12.24c0.98,1.29,2.59,1.96,4.1,1.08C158.72,85,159.52,82.94,158.53,81.64L158.53,81.64z"/>
	</g>
</g>
<g>
	<g>
		<path d="M175.31,41.42c12.24-7.42,30.29,1.12,33.61,14.76c0.93,3.84,0.39,7.81-1.39,11.32c-0.87,1.72,1.72,3.24,2.59,1.51
			c8.05-15.88-7.46-32.28-23.22-33.34c-4.58-0.31-9.17,0.77-13.1,3.15C172.15,39.83,173.66,42.42,175.31,41.42L175.31,41.42z"/>
	</g>
</g>
<g>
	<g>
		<path d="M211.72,63.13c3.84,1.58,7.51,4.12,8.35,8.21c0.71,3.49-0.69,7.57-2.17,11.01c-3.73,8.69-9.74,16.93-10.74,26.56
			c-0.55,5.31,1.26,10.27,5.02,14.05c1.36,1.37,3.48-0.75,2.12-2.12c-3.17-3.19-4.56-7.19-4.17-11.63
			c0.41-4.58,2.38-8.99,4.36-13.09c2.14-4.44,4.54-8.75,6.43-13.3c1.58-3.8,2.84-7.98,2.06-12.12c-1.01-5.37-5.75-8.53-10.48-10.47
			C210.73,59.51,209.96,62.41,211.72,63.13L211.72,63.13z"/>
	</g>
</g>
<g>
	<g>
		<path d="M180.02,67.84c-0.58,5.66,0.95,11.16,3.6,16.13c1.31,2.45,2.86,4.77,4.5,7.01c1.62,2.22,3.41,4.26,4.63,6.74
			c4.5,9.16,4.01,19.89,5.68,29.73c0.95,5.6,2.65,11.14,6.04,15.78c1.13,1.54,3.73,0.05,2.59-1.51c-5.99-8.2-6.19-18.74-7.36-28.43
			c-0.61-5-1.41-10.04-3.32-14.74c-0.96-2.36-2.13-4.46-3.69-6.47c-1.67-2.15-3.29-4.35-4.74-6.65c-3.36-5.33-5.58-11.21-4.92-17.59
			C183.22,65.92,180.22,65.94,180.02,67.84L180.02,67.84z"/>
	</g>
</g>
<g>
	<g>
		<path d="M173.25,87.94c4.17,1.89,8.21,4.05,12.1,6.46c1.64,1.02,3.15-1.57,1.51-2.59c-3.89-2.42-7.93-4.57-12.1-6.46
			c-0.74-0.33-1.61-0.21-2.05,0.54C172.33,86.53,172.51,87.6,173.25,87.94L173.25,87.94z"/>
	</g>
</g>
<g>
	<g>
		<path d="M198.32,101.09c-0.71-4.4,1.19-9.27,4.73-11.99c0.64-0.49,0.98-1.29,0.54-2.05c-0.37-0.63-1.41-1.04-2.05-0.54
			c-4.71,3.62-7.06,9.51-6.11,15.38c0.13,0.8,1.12,1.25,1.85,1.05C198.12,102.7,198.45,101.89,198.32,101.09L198.32,101.09z"/>
	</g>
</g>
<g>
	<g>
		<path d="M193.61,78.5c0.25-2.55,0.5-5.11,0.75-7.66c0.08-0.78-0.74-1.53-1.5-1.5c-0.88,0.04-1.42,0.66-1.5,1.5
			c-0.25,2.55-0.5,5.11-0.75,7.66c-0.08,0.78,0.74,1.53,1.5,1.5C192.99,79.96,193.53,79.34,193.61,78.5L193.61,78.5z"/>
	</g>
</g>
<g>
	<g>
		<path class="st0" d="M311.51,61.69c0.94,0.02,1.88,0.07,2.82,0.18c0.43,0.05,0.45,0.05,0.93,0.13c0.38,0.06,0.75,0.14,1.12,0.22
			c0.61,0.14,1.18,0.34,1.77,0.54c0.22,0.08-0.22-0.11,0.14,0.06c0.11,0.05,0.21,0.1,0.32,0.16c0.22,0.12,0.44,0.24,0.65,0.38
			c0.08,0.06,0.17,0.12,0.25,0.18c-0.37-0.24-0.07-0.05,0.02,0.03c0.15,0.14,0.28,0.3,0.43,0.45c-0.15-0.15-0.16-0.23-0.04-0.04
			c0.04,0.07,0.09,0.14,0.13,0.21c0.05,0.08,0.08,0.17,0.13,0.25c0.11,0.18-0.1-0.36-0.03-0.04c0.03,0.14,0.06,0.36,0.12,0.48
			c0.01,0.02-0.02-0.39-0.02-0.1c0,0.1,0.01,0.2,0,0.3c0,0.08-0.02,0.16-0.01,0.24c0,0.18,0.09-0.39,0-0.06
			c-0.05,0.19-0.09,0.37-0.15,0.55c-0.03,0.08-0.07,0.16-0.09,0.24c-0.01,0.04,0.16-0.32,0.02-0.04c-0.1,0.19-0.19,0.38-0.3,0.56
			c-0.11,0.18-0.23,0.35-0.35,0.52c-0.19,0.27-0.04,0.06-0.03,0.04c-0.08,0.09-0.15,0.18-0.23,0.27c-0.32,0.37-0.67,0.71-1.03,1.04
			c-0.19,0.17-0.38,0.33-0.58,0.48c-0.13,0.1,0.1-0.08,0.1-0.08c-0.06,0.04-0.11,0.08-0.17,0.12c-0.13,0.09-0.26,0.19-0.39,0.28
			c-0.94,0.65-1.94,1.18-2.98,1.65c-0.06,0.03-0.27,0.11,0.03-0.01c-0.07,0.03-0.14,0.06-0.22,0.09c-0.13,0.05-0.26,0.1-0.39,0.15
			c-0.3,0.11-0.6,0.22-0.91,0.31c-0.6,0.19-1.21,0.35-1.83,0.48c-0.34,0.07-0.69,0.13-1.03,0.19c-0.35,0.06,0.14-0.01-0.22,0.03
			c-0.19,0.02-0.37,0.04-0.56,0.06c-0.71,0.06-1.43,0.08-2.14,0.05c-0.38-0.02-0.76-0.05-1.14-0.09c-0.03,0-0.24-0.03-0.05-0.01
			c0.21,0.03-0.14-0.02-0.18-0.03c-0.19-0.03-0.38-0.06-0.57-0.1c-0.74-0.15-1.47-0.35-2.19-0.61c-0.76-0.28-1.64,0.31-1.85,1.05
			c-0.23,0.83,0.28,1.57,1.05,1.85c5.33,1.94,11.67,0.84,16.36-2.25c1.93-1.27,3.74-2.94,4.61-5.13c0.76-1.92,0.32-4.08-1.23-5.47
			c-2.64-2.38-6.77-2.67-10.14-2.76C309.58,58.64,309.58,61.64,311.51,61.69L311.51,61.69z"/>
	</g>
</g>
<g>
	<g>
		<path class="st0" d="M301.04,93.91c2.05,0.22,4,0.48,6.1,0.99c0.77,0.18,1.53,0.4,2.27,0.66c0.14,0.05,0.28,0.1,0.42,0.16
			c0.16,0.06,0.45,0.19,0.12,0.04c0.28,0.13,0.56,0.25,0.84,0.4c0.2,0.11,0.41,0.23,0.6,0.36c0.04,0.02,0.24,0.13,0.24,0.17
			c0-0.01-0.32-0.28-0.11-0.08c0.04,0.04,0.09,0.08,0.14,0.12c0.07,0.06,0.14,0.13,0.2,0.2c0.17,0.18,0.08,0.28-0.03-0.06
			c0.04,0.11,0.18,0.31,0.25,0.41c0.07,0.1-0.13-0.44-0.05-0.11c0.02,0.07,0.03,0.15,0.05,0.21c0.06,0.17-0.01-0.48-0.02-0.17
			c0,0.07,0,0.16,0,0.23c0.01,0.29,0.11-0.42,0.02-0.15c-0.02,0.07-0.04,0.14-0.06,0.21c-0.05,0.2-0.21,0.22,0.05-0.11
			c-0.05,0.06-0.07,0.15-0.11,0.21c-0.04,0.07-0.09,0.14-0.13,0.21c-0.1,0.17-0.28,0.21,0.05-0.05c-0.14,0.11-0.26,0.3-0.39,0.43
			c-0.14,0.14-0.28,0.26-0.43,0.38c-0.04,0.03-0.08,0.06-0.12,0.1c-0.14,0.12,0.34-0.24,0.12-0.1c-0.1,0.07-0.2,0.15-0.3,0.22
			c-0.42,0.29-0.86,0.54-1.3,0.77c-0.22,0.11-0.43,0.22-0.65,0.32c-0.13,0.06-0.26,0.11-0.38,0.17c-0.29,0.13,0.34-0.13,0.04-0.02
			c-0.08,0.03-0.16,0.07-0.24,0.1c-1.18,0.47-2.39,0.84-3.62,1.13c-0.67,0.16-1.35,0.3-2.02,0.41c-0.35,0.06-0.7,0.11-1.05,0.16
			c0.44-0.07-0.14,0.02-0.24,0.03c-0.18,0.02-0.36,0.04-0.54,0.06c-1.65,0.17-3.32,0.21-4.98,0.11c-0.42-0.03-0.84-0.06-1.26-0.11
			c-0.18-0.02-0.36-0.04-0.54-0.06c0.45,0.06-0.25-0.04-0.35-0.06c-0.81-0.13-1.62-0.31-2.41-0.53c-1.86-0.52-2.66,2.37-0.8,2.89
			c3.1,0.87,6.39,1.07,9.59,0.82c2.97-0.23,5.96-0.79,8.74-1.86c2.1-0.8,4.41-1.88,5.69-3.82c0.55-0.82,0.78-1.87,0.53-2.84
			c-0.28-1.09-1.08-1.89-1.97-2.52c-1.28-0.9-2.88-1.41-4.38-1.81c-2.47-0.66-5.03-1-7.57-1.27c-0.81-0.08-1.5,0.75-1.5,1.5
			C299.54,93.29,300.23,93.82,301.04,93.91L301.04,93.91z"/>
	</g>
</g>
<g>
	<g>
		<path class="st1" d="M236.56,97.04c7.48-4.42,16.77-3.83,24.95-2.06c1.88,0.41,2.69-2.48,0.8-2.89
			c-8.98-1.94-19.07-2.48-27.26,2.36C233.39,95.43,234.89,98.02,236.56,97.04L236.56,97.04z"/>
	</g>
</g>
<g>
	<g>
		<path class="st1" d="M239.37,118.23c3.46-1.15,7.15-1.35,10.71-0.51c0.79,0.19,1.63-0.25,1.85-1.05c0.21-0.76-0.26-1.66-1.05-1.85
			c-4.06-0.96-8.34-0.81-12.3,0.51c-0.77,0.25-1.27,1.04-1.05,1.85C237.73,117.93,238.6,118.48,239.37,118.23L239.37,118.23z"/>
	</g>
</g>
<g>
	<g>
		<path class="st2" d="M242.68,66.11c-4.19-12.72-10.32-26.27-22.03-33.72c-1.63-1.04-3.14,1.56-1.51,2.59
			c11.01,7,16.72,20,20.65,31.93C240.39,68.74,243.28,67.95,242.68,66.11L242.68,66.11z"/>
	</g>
</g>
<g>
	<g>
		<path class="st2" d="M222.33,37.36c6.92,4.44,14.34,8.32,22.63,9.2c1.92,0.2,1.9-2.8,0-3c-7.72-0.82-14.69-4.67-21.11-8.79
			C222.21,33.72,220.71,36.32,222.33,37.36L222.33,37.36z"/>
	</g>
</g>
<g>
	<g>
		<path class="st3" d="M173.26,47.77c-2.78-1.8-6.07-2.57-9.33-1.8c-3.06,0.73-5.73,2.73-7.75,5.08c-4.53,5.3-6.86,12.79-5.79,19.71
			c0.58,3.77,2.42,7.33,5.43,9.73c1.49,1.19,3.63-0.92,2.12-2.12c-4.81-3.84-5.58-10.29-4.19-15.96c1.26-5.17,4.44-11.09,9.67-13.14
			c2.88-1.13,5.78-0.55,8.32,1.09C173.37,51.41,174.88,48.82,173.26,47.77L173.26,47.77z"/>
	</g>
</g>
<g>
	<g>
		<path class="st3" d="M161.55,81.78c-2.25,2.23-3.86,5-4.11,8.2c-0.22,2.85,0.73,5.7,2.14,8.14c3.27,5.67,8.91,10.03,14.55,13.17
			c2.83,1.58,5.87,2.96,9.04,3.69c1.88,0.44,2.68-2.46,0.8-2.89c-5.25-1.22-10.27-4.12-14.45-7.44c-3.97-3.15-8.59-7.65-9.08-13.01
			c-0.28-3.04,1.11-5.65,3.22-7.74C165.05,82.54,162.93,80.42,161.55,81.78L161.55,81.78z"/>
	</g>
</g>
<g>
	<g>
		<path class="st3" d="M178.13,74.56c2.11,10.65,10.67,18.21,15.16,27.77c1.13,2.4,1.97,4.98,2.33,7.61
			c0.41,2.98,0.06,5.83-0.46,8.77c-1.02,5.82,0.71,11.2,3.7,16.17c3.13,5.19,7.27,9.96,8.58,16.03c0.4,1.89,3.3,1.09,2.89-0.8
			c-2.28-10.62-13.62-18.07-12.42-29.6c0.32-3.07,1.06-5.95,0.85-9.08c-0.18-2.75-0.8-5.46-1.79-8.04
			c-1.95-5.07-5.07-9.5-8.13-13.94c-3.33-4.84-6.66-9.83-7.82-15.69C180.65,71.87,177.76,72.67,178.13,74.56L178.13,74.56z"/>
	</g>
</g>
<g>
	<g>
		<path class="st4" d="M354.16,107.13c1.83,4.06,2.93,8.66,1.61,13.03c-1.1,3.63-3.71,6.55-6.52,9c-6.61,5.76-14.78,9.55-20.82,16
			c-3.45,3.67-5.77,8.03-6.4,13.06c-0.24,1.91,2.76,1.89,3,0c1.11-8.85,8.89-14.48,15.7-19.15c6.76-4.64,15.09-9.48,17.82-17.74
			c1.74-5.27,0.41-10.8-1.79-15.71C355.96,103.86,353.38,105.38,354.16,107.13L354.16,107.13z"/>
	</g>
</g>
<text transform="matrix(1 0 0 1 164.064 265.1274)" class="st5 st6">Craig’s</text>
<polygon class="st7" points="409.5,294.5 138.5,298.5 136.5,193.5 407.5,189.5 "/>
<circle class="st8" cx="151" cy="205" r="2.5"/>
<circle class="st8" cx="153" cy="284" r="2.5"/>
<circle class="st8" cx="395" cy="281" r="2.5"/>
<circle class="st8" cx="392" cy="202" r="2.5"/>
</svg>
