<?xml version="1.0" encoding="utf-8"?>
<!-- Generator: Adobe Illustrator 26.0.0, SVG Export Plug-In . SVG Version: 6.00 Build 0)  -->
<svg version="1.1" id="Layer_1" xmlns="http://www.w3.org/2000/svg" xmlns:xlink="http://www.w3.org/1999/xlink" x="0px" y="0px"
	 viewBox="0 0 500 75" style="enable-background:new 0 0 500 75;" xml:space="preserve">
<style type="text/css">
	.st0{fill:none;stroke:#000000;stroke-width:2;stroke-miterlimit:10;}
</style>
<path class="st0" d="M174.41,58.32l297.09-0.29C471.5,58.03,231.95,58.03,174.41,58.32c2.31-3.72,5.14-6.41,8.81-6.58
	c4.19,0.74,7.24-3.8,11.26-2.48c2.8,1.27,4.87,0.15,6.92-1.4c5.24-3.36-7.38-12.46-9.37-16.02c4.14-5.25,5.14-7.49,4.61-9.76
	c-3.04,3.45-5.46,10.31-9.7,3.47c3.9-3,7.19-6.53,7.23-12.05c-1.69,7.24-16.81,14.54-23.43,12.79c-5.25-1.1-10.34-0.63-15.21,1.62
	C115.14,54.11,64.84,5.85,69.2,58.84C59.39,58.89,49.01,58.94,38,59l31.2-0.16"/>
</svg>
