<svg version="1.1" id="Layer_1" xmlns="http://www.w3.org/2000/svg" x="0" y="0" viewBox="0 0 359 229" style="enable-background:new 0 0 359 229" xml:space="preserve"><path class="st0" d="M138.16 99.03c22.51.98 42.97 1.61 65.76 2.61 2.27-18.11 12.11-81.73-17.86-77.89-14.83.07-29.39-1.81-44.23-1.21 4.22 25.74-3.26 50.69-3.67 76.49z"/><path d="M65.99 89.4c7.48-22.58 16.37-44.62 15.09-69.33h-8.04c.91-32.3-1.39-8.3-14.78-6.38-27.45-1.92-13.41-2.43-32.17 5.44-4.84 2.03-12.14-5.07-12.9-12.72-1.21-12.06-5.07 20.03 4.6 19.66C24.59 43.17.73 52.72 3.77 68.55c.31 2.67 1.53 4.79 5.02 4.36 2.68-.35 6.13 2.53 8.51 2.25 6.62-2.07 13.15.13 19.74.37 21.44.44 15.37-7.07 28.95 13.87z"/><path d="M65.05 89.08c5.6-16.92 12.04-33.61 14.31-51.32.75-5.85 1.03-11.76.73-17.64l1 .95c-1.82.61-8.7 2.95-10.33 3.51l-1.43-4.61c.86-5.06 1.84-10.3 1.61-15.37.12.13.22.28.54.44.35.17.89.19 1.14.02.09-.07.01-.04-.07.01-.08.06-.19.14-.3.23-3.9 4.04-8.01 8.87-14.06 9.38-5.88-.47-11.91-1.11-17.79-.75-2.41.35-3.88 2.22-6.17 3.37-2.28 1.35-4.65 2.47-7.07 3.52-1.05.49-2.29.71-3.42.6-2.34-.21-4.17-1.29-5.71-2.49-4.45-3.5-6.56-8.88-6.96-14.2.6 1.04 2.08.9 2.59.28.12-.13.15-.2.17-.23.05-.1-.03.06-.07.18-.95 4.29-.88 8.97-.3 13.3.25 1.6.63 3.18 1.31 4.51.8 1.6 2.03 2.49 3.66 2.25 1.9 3.95 2.29 8.68.88 12.86-3.13 10.77-15.9 18.65-13.87 30.47.42 3.06 1.52 2.96 4.03 2.8 2.69.2 4.19 1.33 6.34 2.02.54.18 1.04.25 1.27.22l-.32.07c7.13-2.25 14.38.34 21.49.41 3.45.04 6.89-.09 10.33-.47 1.82-.16 3.76-.5 5.69-.16 4.59 1.11 6.5 6.16 8.9 9.59l1.84 3 .91 1.51.45.75.23.38.11.19.06.09.03.05.01.02.01.01c-.79.12 1.8-.21-1.77.25zm1.89.63c-3.58.46-1 .12-1.8.22l-.01-.01-.02-.02-.03-.05-.06-.09c-.08-.11-.3-.42-.38-.54-.28-.4-1.2-1.74-1.51-2.17l-1.98-2.9c-1.92-2.6-3.67-5.83-6.25-7.63-1.69-.95-3.99-.25-5.97-.07-3.54.48-7.14.78-10.72.74-6.74.08-14.12-2.43-20.4-.36-3.18.64-5.99-2.23-8.76-2.22-2.67.39-5.41-.74-6.38-3.42-5.3-16.38 14.81-24.88 15.18-39.41-.01-1.8-.36-3.61-.99-5.35l.97.63c-2.13.27-4.22-1.29-5.2-3.03-1.92-3.26-2.45-6.86-2.77-10.5-.2-3.19-.26-6.36.42-9.53.12-.39.29-1.05.74-1.5.83-.94 2.62-.87 3.31.56.81 1.8.56 3.55 1.17 5.36.86 2.88 2.67 5.6 4.97 7.44 1.52 1.13 3.05 1.96 4.68 1.49 2.48-.99 4.94-2.1 7.34-3.25 1.48-.67 3.1-1.68 4.65-2.36 1.82-.85 3.92-.7 5.79-.5 4.95.61 10.44 1.24 15.4 1.44 1.52-.2 5.09-2 6.67-3.89 1.42-1.44 2.75-3.31 3.97-4.97.59-.78 1.08-1.54 2.04-2.08.86-.54 2.44-.27 3.04.65.51.64.75 1.54.88 2.11.48 2.32.66 4.57.89 6.86.31 2.95.55 5.88.96 8.81l-3.73-3.83 8.04 2.73h.95c1.63 24.48-7.47 47.89-15.1 70.64z"/><path class="st0" d="M85.19 19.71c4.34 85.06-61.62 84.14 47.75 79.96.5-17.05 10.94-63.41 1.92-75.37-17.14 3.45-33.07-2.92-49.67-4.59z"/><path d="M279.01 17.68c30.9 33.43 24.22 58.5 15.6 98.72 34.77.15 29.13 4.51 37.02-26.76.16-.64 1.71 2.39 1.73 3.05 1.11 44.23-12.64 6.69 12.5 54.5 5.68-30.53-3.24-20.12-6.71-50.05-2.07-42.55-10.06-81.39-60.14-79.46z"/><path class="st0" d="M334.13 210.91c-7.02-19.57.25-40.27-2.7-60.5-.23-2.9-1.69-3.8-4.53-3.76-40.11 1.29-31.87 4.19-62.72-21.01 1.04 8.04-4.82 13.2 1.63 17.71 20.34 7.17 29.92 26.07 24.91 46.7.74 11.45-25.01 36.94 1.26 33.44 9.07-.99 9.05-1.02 9.88-9.89.09-.95.17-2.39.74-2.71 4.89-2.67 3.07-6.85 3.33-11.01.46-7.59 2.34-15.09 3.74-23.29 18.47 20.11 4.96 26.09 4.02 47.64 3.95 4.97 13.65 3.4 18.78.05 3.81-3.1.22-9.52 1.66-13.37zm-204.42 8.53c-.21 6.74 11.85 3.76 15.73 2.2 22.26-20.2-1.61-47.02-2.55-73.29-13.16.65-23.47-.3-38.28.43 2.31 18.56 18.04 44.77 4.29 60.44-4.04 4.31-9.54 13.87.48 14.19 7.12.86 15.06 1.76 20.33-3.97zm-.54-50.31c.66.01 1.33.03 2 .04 5.23 12.31 15.38 29.57 1.54 39.88-4.65-13.18-5.67-26.16-3.54-39.92zM204.46 110.33c-22.76-5.99-44.73-4.52-67.01-4.36 1.11 44.87 26.83 40.85 62.02 45.62 1.54-12.77 3.25-26.84 4.99-41.26zM251.54 111.82c3.23-16.21 1.34-32.79.12-49.25.24-5.41-33.64-10.5-39.32-11.23l-.9 52.34c12.36 2.5 25.59 5.19 40.1 8.14zM205.85 153.29c18.11-3.55 34.32-7.98 52.12-14.28-.74-4.65 3.58-15.39-2.44-18.95-15.09-5.47-29.42-9.48-45.69-11.01-.24 13.84-7.65 32.81-3.99 44.24zM296.85 58.49c-13.49.73-26.76.52-40.16 1.24.44 9.01.88 17.75 1.35 27.23h37.69c1.44-9.44 4.45-18.17 1.12-28.47z"/><path class="st0" d="M330.5 142.17c-2.59-6.78-4.99-13.08-7.52-19.71-17.72-.83-36.32-1.69-54.99-2.57 30.28 27.66 22.39 22.07 62.51 22.28zM133.92 118.55c-.37-4.16-1.34-7.47-1.75-12.06-19.87-2.47-38.17-.86-58.21 1.02 6.54 15.76 3.12 16.07 21.46 13.65 12.63-.66 25.24-1.7 38.5-2.61zM296.61 53.66c-3.73-5.44-3.85-14.91-10.56-16.15-21.57 2.56-43.38 3.66-64.51 8.92 24.04 10.68 49.04 8.21 75.07 7.23zM259.07 91.59c-1.71 7.31-3.42 14.6-5.44 23.26 39.51-.08 33.73 9.56 41.73-23.26h-36.29zM83.22 127.4c10.27 24.05 39.71 14.12 60.01 14.79-3.87-5.53-5.18-15.64-11.06-18.59-16.46.23-32.35 3.02-48.95 3.8zM203.86 24.38c2.89 7.26 5.75 14.45 8.53 21.43 11.76-3.34 23.37-6.63 35.46-10.06-2.47-5.21-3.37-14.67-10.78-14.9-11.09.9-22.12 2.3-33.21 3.53zM245.03 20.15c1.86 5.43 3.58 10.47 5.37 15.73 11.26-.98 22.67-1.97 34.91-3.02-4.73-4.58-7.13-13.64-13.53-14.92-8.78.67-17.56 1.43-26.75 2.21z"/></svg>