<svg data-name="Layer 1" xmlns="http://www.w3.org/2000/svg" viewBox="0 0 433.51 55.45"><path d="m174.41 220.82 297.09-.29s-239.55 0-297.09.28c2.31-3.71 5.13-6.4 8.81-6.57 4.19.74 7.24-3.8 11.26-2.48 2.8 1.27 4.88.15 6.92-1.4 5.24-3.35-7.38-12.46-9.36-16 4.14-5.25 5.14-7.49 4.61-9.76-3 3.45-5.46 10.32-9.7 3.47 3.9-3 7.19-6.53 7.23-12.05-1.69 7.24-16.81 14.54-23.44 12.79a23.84 23.84 0 0 0-15.21 1.62c-40.39 26.2-90.69-22.06-86.33 30.93l-31.2.14 31.2-.16" transform="translate(-37.99 -167.05)" style="fill:none;stroke:#fff;stroke-miterlimit:10;stroke-width:2px"/></svg>