<svg xmlns="http://www.w3.org/2000/svg" viewBox="0 0 512 512"><defs><style>.cls-1,.cls-3,.cls-6{fill:#fff;}.cls-2,.cls-5{fill:none;}.cls-2,.cls-5,.cls-6{stroke:#fff;stroke-miterlimit:10;}.cls-2{stroke-width:5px;}.cls-3,.cls-4{font-size:62px;}.cls-3,.cls-4,.cls-5,.cls-6{font-family:TempusSansITC, Tempus Sans ITC;}.cls-4{fill:#353137;}.cls-5,.cls-6{font-size:24px;}</style></defs><g id="icon-wordings"><path class="cls-1" d="M256,28a230.07,230.07,0,0,1,89.53,441.93A230.07,230.07,0,0,1,166.47,46.07,228.65,228.65,0,0,1,256,28m0-2C127.87,26,24,129.87,24,258S127.87,490,256,490,488,386.13,488,258,384.13,26,256,26Z"/><circle class="cls-2" cx="255.5" cy="255.5" r="132.5"/><circle class="cls-2" cx="256" cy="256" r="220.5"/><text class="cls-3" transform="translate(102.01 207.68) rotate(-68.38)">J</text><text class="cls-3" transform="translate(110.03 186.67) rotate(-59.57)">e</text><text class="cls-3" transform="translate(123.06 163.53) rotate(-48.94)">n</text><text class="cls-3" transform="translate(144.92 138.43) rotate(-37.8)">k</text><text class="cls-3" transform="translate(168.92 120.36) rotate(-29.85)">i</text><text class="cls-3" transform="translate(181.04 112.43) rotate(-21.23)">n</text><text class="cls-3" transform="translate(212.43 100.72) rotate(-11.7)">s</text><text class="cls-3" transform="translate(232.11 96.74) rotate(-5.56)">’</text><text class="cls-3" transform="translate(246.62 95.28) rotate(-0.38)"> </text><text class="cls-3" transform="matrix(0.99, 0.14, -0.14, 0.99, 261.04, 94.46)">B</text><text class="cls-3" transform="matrix(0.94, 0.33, -0.33, 0.94, 291.95, 98.41)">u</text><text class="cls-3" transform="translate(323.05 109.71) rotate(28.8)">t</text><text class="cls-3" transform="matrix(0.8, 0.6, -0.6, 0.8, 341, 119.28)">c</text><text class="cls-3" transform="translate(361 133.68) rotate(46.88)">h</text><text class="cls-3" transform="matrix(0.54, 0.84, -0.84, 0.54, 382.76, 157.03)">e</text><text class="cls-3" transform="translate(397.16 179.71) rotate(65.62)">r</text><text class="cls-3" transform="translate(405.47 197.86) rotate(72.79)">s</text><text class="cls-4" transform="translate(58.78 273.66) rotate(82.38)"> </text><text class="cls-4" transform="translate(61.32 291.78) rotate(77.07)"> </text><text class="cls-4" transform="translate(65.51 309.54) rotate(71.75)"> </text><text class="cls-3" transform="matrix(0.4, 0.92, -0.92, 0.4, 71.35, 326.88)"> </text><text class="cls-3" transform="matrix(0.53, 0.85, -0.85, 0.53, 78.92, 345.16)">P</text><text class="cls-3" transform="matrix(0.66, 0.75, -0.75, 0.66, 100.04, 377.35)">r</text><text class="cls-3" transform="translate(116.61 396.23) rotate(40.56)">e</text><text class="cls-3" transform="matrix(0.89, 0.45, -0.45, 0.89, 142.74, 419.55)">m</text><text class="cls-3" transform="matrix(0.97, 0.26, -0.26, 0.97, 196.45, 443.99)">i</text><text class="cls-3" transform="translate(215.61 449.59) rotate(6.63)">u</text><text class="cls-3" transform="translate(257.2 454.73) rotate(-7.99)">m</text><text class="cls-3" transform="translate(315.23 444.08) rotate(-19.68)"> </text><text class="cls-3" transform="matrix(0.85, -0.52, 0.52, 0.85, 336.14, 438.16)">M</text><text class="cls-3" transform="matrix(0.7, -0.71, 0.71, 0.7, 387.54, 403.58)">e</text><text class="cls-3" transform="translate(410.1 379.96) rotate(-54.82)">a</text><text class="cls-3" transform="matrix(0.45, -0.89, 0.89, 0.45, 427.49, 354.5)">t</text><path class="cls-1" d="M255,134a122,122,0,1,1-86.27,35.73A121.18,121.18,0,0,1,255,134m0-1A123,123,0,1,0,378,256,123,123,0,0,0,255,133Z"/><path class="cls-1" d="M186.88,269.59l-.24,7.06c-.06,1.88,0,4.09,1.81,5.16a1.5,1.5,0,1,0,1.52-2.59c-.15-.09-.16-.09,0,0-.12-.13-.13-.12,0,0,0-.07-.2-.35-.09-.11a3.35,3.35,0,0,1-.16-.54c-.08-.33,0,.14,0-.17,0-.88,0-1.76,0-2.64l.21-6.19a1.5,1.5,0,0,0-3,0Z"/><path class="cls-1" d="M177.78,254.07a7.46,7.46,0,0,1-4.36-5.43,12.1,12.1,0,0,1,1.68-8.47,24.51,24.51,0,0,1,11-9.7c10.9-5.2,23.31-3.73,34.92-2.74a144.83,144.83,0,0,0,19.76.48c6.58-.32,13.13-1.05,19.67-1.85s13.09-1.7,19.66-2.34,13.32-1.13,19.94-.32a70.6,70.6,0,0,1,17.63,4.82c5.12,2.06,10.25,4.92,13.69,9.36,6,7.79,6.26,19.74.09,27.52-3.63,4.6-9,6.18-14.63,6.54a70.91,70.91,0,0,1-18.85-1c-6.07-1.27-11.86-3.53-17.69-5.59a172.7,172.7,0,0,0-91.33-6.82q-4.49.88-8.92,2c-1.87.47-1.08,3.36.8,2.89a170.23,170.23,0,0,1,96.46,4.05c6.22,2.14,12.33,4.63,18.75,6.12A74,74,0,0,0,315.56,275c5.91-.23,11.92-1.41,16.33-5.64,7.77-7.46,9-19.91,4.32-29.32-2.51-5.08-6.86-8.9-11.76-11.62A70.26,70.26,0,0,0,307.1,222c-13.51-3.26-27.53-1-41.09.69-13.74,1.73-27.48,3.38-41.34,2.37-12.55-.92-25.65-3-37.7,1.8a29.68,29.68,0,0,0-12.46,8.89c-3.58,4.55-5.79,10.79-3,16.29A10,10,0,0,0,177,257c1.81.68,2.59-2.22.79-2.89Z"/><path class="cls-1" d="M169,262.77l3.32,11.43c.92,3.18,1.8,6.09,4.74,8,6,3.84,14,2.25,20.64,1.53,14.94-1.62,29.92-.39,44.65,2.35,14.55,2.7,28.81,6.67,43.17,10.22,7.22,1.78,14.51,3.66,21.88,4.71,6.76,1,13.69.93,20-1.88a20.49,20.49,0,0,0,12.1-15.27c1.33-7.13.05-14.46,1.43-21.58.36-1.88-2.53-2.69-2.9-.79-2.16,11.21,2.41,26-9,33.35-5.39,3.49-11.89,4.15-18.16,3.59-7.14-.63-14.21-2.51-21.16-4.19-27.48-6.62-55.08-15.39-83.69-14.15-4.06.18-8.08.61-12.11,1.07-3.84.44-7.82.84-11.62-.07a10.17,10.17,0,0,1-4.66-2.17c-1.29-1.2-1.71-2.89-2.19-4.52L171.93,262a1.5,1.5,0,0,0-2.89.8Z"/><path class="cls-1" d="M317,283.89a30.58,30.58,0,0,1-2,14.69,1.5,1.5,0,0,0,1.05,1.84,1.53,1.53,0,0,0,1.84-1A32.64,32.64,0,0,0,320,283.89a1.54,1.54,0,0,0-1.5-1.5,1.5,1.5,0,0,0-1.5,1.5Z"/><path class="cls-1" d="M267.3,273.91l-4.12,9.18a1.51,1.51,0,0,0,2.6,1.52l4.11-9.18a1.55,1.55,0,0,0-.54-2.06,1.53,1.53,0,0,0-2.05.54Z"/><path class="cls-1" d="M275,275.44a62.2,62.2,0,0,1-5.28,9.25,1.51,1.51,0,0,0,.54,2.05,1.54,1.54,0,0,0,2-.54,61.6,61.6,0,0,0,5.28-9.24,1.53,1.53,0,0,0-.54-2,1.51,1.51,0,0,0-2.05.53Z"/><path class="cls-1" d="M188.32,249c-2.72-2-6.85-5.3-4.87-9.11s7.31-4.72,11.13-5.52l7.5-1.57c2.54-.53,4.91-1.25,7.47-.49,4.77,1.4,9.6,2.92,14.23,4.72,4.47,1.72,8.51,4.3,12.73,6.53a56.71,56.71,0,0,0,6.4,2.9,37.31,37.31,0,0,1,6,2.52,9.67,9.67,0,0,1,1.21.79,4.6,4.6,0,0,0,.5.45l0-.37-.37.17a13,13,0,0,0-1.65.43,10.3,10.3,0,0,1-1.75.12c-2.45,0-4.91-.4-7.34-.63q-7.56-.72-15.14-1c-5.7-.22-11.43-.3-17.13-.1a58.62,58.62,0,0,0-16.06,2.44c-1.83.59-1,3.49.8,2.89a57.48,57.48,0,0,1,16.18-2.36c5.73-.16,11.47-.07,17.19.17s11.4.66,17.08,1.27c2.58.27,5.24.6,7.8-.07,2.19-.58,4.47-2.37,2.76-4.73-1.32-1.83-3.93-2.82-6-3.63-2.34-.94-4.74-1.72-7-2.83-4.78-2.32-9.22-5.28-14.14-7.32-2.53-1.06-5.14-1.89-7.74-2.73s-5.47-1.9-8.24-2.65-5.4,0-8.13.53l-8.46,1.76c-4.92,1-11,2.64-13,7.94s2.7,9.34,6.45,12.08c1.56,1.14,3.06-1.46,1.52-2.59Z"/><path class="cls-1" d="M242.6,237.22c3.86,2.27,7.89,4.52,12.42,5,4.37.42,8.58-1.34,12.19-3.66,1.62-1,3.37-2.4,3.77-4.4a4,4,0,0,0-2.5-4.34,16.71,16.71,0,0,0-6.39-1.1,41.63,41.63,0,0,0-7,.49c-2.49.35-5,.77-7.45,1.35a12,12,0,0,0-5.94,3c-1.38,1.36.74,3.48,2.12,2.12a10.23,10.23,0,0,1,5.36-2.38c2.22-.46,4.46-.87,6.71-1.18,1.42-.19,12.73-1.29,12.08,1.6-.21.94-1.4,1.67-2.14,2.15a29.16,29.16,0,0,1-2.58,1.53,15.36,15.36,0,0,1-6.54,1.9c-4.61.14-8.79-2.35-12.63-4.61a1.5,1.5,0,0,0-1.52,2.59Z"/><path class="cls-1" d="M266.79,248c6-6.5,14.11-10.52,22.64-12.66a47.75,47.75,0,0,1,13.45-1.67,18.14,18.14,0,0,1,6.66,1.41,17.8,17.8,0,0,1,5.44,4.08c1.82,1.88,3.57,3.83,5.35,5.76,1.58,1.71,3.61,3.44,4.32,5.74a13.79,13.79,0,0,1-.23,7,6,6,0,0,1-3.67,4.33,16.24,16.24,0,0,1-5.62.92c-2.52.07-5,0-7.56-.06A106.25,106.25,0,0,1,293,261.77a39.15,39.15,0,0,1-7.61-2,30.65,30.65,0,0,1-6.88-3.92,36.24,36.24,0,0,0-6.32-3.74c-2.17-1-4.37-1.94-6-3.76-1.29-1.44-3.4.68-2.13,2.12a16.32,16.32,0,0,0,5.55,3.75,39.83,39.83,0,0,1,6.49,3.59,39.44,39.44,0,0,0,6.55,4.05,35.94,35.94,0,0,0,7.42,2.41,91.22,91.22,0,0,0,15.82,1.58c2.84.11,5.69.17,8.54.14a22.89,22.89,0,0,0,6.33-.78,9.49,9.49,0,0,0,5.15-3.5c1.46-2.06,1.82-4.78,2-7.24a11.13,11.13,0,0,0-1.86-7.53,65.92,65.92,0,0,0-5.46-6.12c-3.58-3.87-7-7.81-12.21-9.31-4.81-1.36-10-.88-14.82-.07-10.77,1.81-21.38,6.35-28.91,14.46-1.31,1.41.81,3.54,2.13,2.12Z"/><text class="cls-5" transform="translate(220.01 197.13)">E S T D</text><text class="cls-6" transform="translate(222.69 338.64)">1 9 3 2</text></g></svg>