<svg xmlns="http://www.w3.org/2000/svg" viewBox="0 0 512 512" style="enable-background:new 0 0 512 512" xml:space="preserve"><style>.st11{stroke:#fff;stroke-width:.25;stroke-miterlimit:10}.st15,.st19{fill:#fff}.st19{stroke:#fff;stroke-miterlimit:10}</style><g id="outter_frame"><path d="M488 258c0 128.13-103.87 232-232 232-307.74-12.22-307.66-451.83 0-464 128.13 0 232 103.87 232 232z" style="fill:none;stroke:#000;stroke-width:10;stroke-miterlimit:10"/><path d="M388 255.5c0 73.18-59.32 132.5-132.5 132.5-175.76-6.98-175.71-258.05 0-265 73.18 0 132.5 59.32 132.5 132.5z" style="fill:none;stroke:#000;stroke-width:5;stroke-miterlimit:10"/><path d="M476.5 256c0 121.78-98.72 220.5-220.5 220.5-292.49-11.61-292.41-429.43 0-441 121.78 0 220.5 98.72 220.5 220.5z" style="fill:none;stroke:#000;stroke-width:3;stroke-miterlimit:10"/></g><g id="title"><path class="st11" d="M69.95 175.5c17.44 6.92 30.41 9.06 35.67 29.8.52 2.26-.18 2.25-2.5 1.62-4.44 2.99-1.7-5.52-2.46-7.19-3.87-12.46-19.9-16.8-31.48-19.58-1.4-.54-.26-3.73-.32-4.62.25-.08.82.28 1.09-.03zM106.47 154.53c.67-.16 1.53.67 1.6 1.22 1.04.11-.65 1.81-.23 2.54-.25.13-.66.31-.9.7l-.5.13c-.91 2.15-2.61 4.06-3.39 6.37-1.57 2.68-4.37 5.9-3.27 8.86 8.51 8.08 18.76-2.14 19.69-11.47 2.43.1 4.55 3.36 2.65 5.17-1.78 3.3-1.94 3.67-5.44 7.48-9.59 13.33-28.13-2.28-23.37-14.85.62-6.97 6.85-10.24 13.16-6.15zm-12 7.34c-.3.96 1.34 10.29 2.98 9.09 1.25-1.19 5.45-9.86 6.46-11.48 2.16-4.31-7.85-5.95-9.44 2.39zM115.49 132.21c8.84-15.25 20.14 4.01 26.98 11.66 1.92 2.06-1.44 4.98-3.34 3.84-1.57-2.43-1.03-4.77-3.87-8.15-3.93-5.51-11.7-13.79-17.38-6.83-1.85 2.04-3.93 6.44-2.59 8.74-1.15 2.53 6.52 7.72 7.99 9.53.93 1.04 2.8 2.08 3.94 2.43.8.81 2.51 2.09 1.51 3.2l.2.41c-1.15.55-.21 2.07-2.15 1.82-.78 1.03-1.71.06-1.79-.8-1.74-3.62-13.62-14.95-17.36-15.28-1.73-.76-.4-2.19-.71-3.61-.15-.55-.11-.91.14-1.18.73-.93.23-2.4 1.79-1.05 1.22.78 2.18 4.55 3.89 2.63-.14-2.3 2.32-3.5 2.03-5.38.15-.2.5-.84.64-1.01.11-.54.13-.87.08-.97zM125.49 95.9c.12.16.23.33.32.51.81 4.76 6.81 10.67 9.55 14.74 4.41 5.03 10.83 15.72 16.03 19.33 1.01 1.46.96 2.1-.11 2.62-.69 1.51-3.02 2.15-3.55.07-4.02-7.85-20.42-26.56-26.53-35.13 1.32-2.51 1.49-3.65 3.9-2.33.19-.17.3.09.39.19zm25.13 7.41c-1.48.84-.98 1.12-1.51 3.93-.28 3.11-1.73 8.91-1.24 11.54 4.04.16 13.13-.06 16.99-2.15.97-.62 4.35-.11 3.58 1.84-.55 1.46.29 2.74-1.46 3.3-4.06-1.14-16.92.16-20.95 1.5-1.82-1.9-.57-4.14-.35-6.32 1.24-3.64 1.5-9.26.69-13.33.59-.39.5-2.64 1.25-2.99l.14-.11c.24.05.5-.14.69-.3 1.46-.05 2.32 1.82 2.17 3.09zM158.09 81.9c.65.18 2.97-.42 3.37.51.48.76-.15 2.65-.98 3.04-.53.57-3.2-.13-3.54-.45-.41-.71.31-2.8 1.15-3.1zm20.41 32.75c.2.17-1.82 2.59-1.94 2.55-2.83 3.03-4.19-.43-4.21-3.1-1.43-3.62-7.75-13.27-9.91-17.39-1.63-1.13-3.93-2.68-1.49-4.87 3.35-7.88 8.02 16.64 17.3 22.81h.25zM188.91 81.19c14.92-9.39 15.97 12.92 18.46 22.87.74 2.71-3.58 3.74-4.74 1.84-.26-2.88 1.3-4.7.37-9.01-.94-6.74-3.9-17.62-12.21-14.13-2.59.94-6.48 3.87-6.36 6.53-2.19 1.7 2.18 9.87 2.64 12.16.34 1.35 1.51 3.14 2.36 3.99.33 1.09 1.26 3.02-.15 3.53l-.02.46c-1.27-.05-1.15 1.73-2.75.61-1.17.55-1.54-.74-1.22-1.54.14-4.02-5.1-19.56-8.26-21.6-.54-.83-.52-1.71.43-2.41.65-.33.55-1.92 1.3-2.1.47-.22.98-.81 1.25-1.04 2.01.36.16 6.2 3.05 5.08.95-2.1 3.68-2.02 4.3-3.81.22-.1.83-.51 1.03-.6.35-.44.52-.72.52-.83zM225.38 82.21c6.44 3.77 3.59 14.55-2.81 16.72-3.06.88-8.56 3.81-8.68-1.88.61-.28 1.68.15 2.17.2l.17-.1c12.35 2.44 14.97-14.16-.65-13.28-2.06-.05-4.3-1.69-5.14-3.45-1.94-8.49 5.1-9.94 12.52-11.65 1.12.75 1.12 3.45.34 4.32-.44-.56-.85-.88-1.33-.31-7.01-4.61-15.01 7.92-4.26 8.24 2.69.15 6.1.28 7.67 1.19zM239.55 52.22c.42-.08.46.55.39.84-2.89 6.81-4.65 11.09-5.29 12.83-1.37 2.71-2.77 1.28-1.3-1.79 1.72-3.7 1.94-10.74 6.2-11.88zM284.18 72.52c11.06 4.17 11.33 17.22.87 22.43l-.66-.09c-.56.34-1.83 1.51-2.18.77-.88.9-5.47.87-6.53.6l-.75.57-.83-.42c-.42.28-1.17.23-1.49-.02-.95.01-4.51-.55-5.49-.51 2.42-9.01 3.7-20.4 5.33-29.73.51-3.74.72-6.49.63-8.26-.04-3.08-.79-4.96 2.52-4.7l.69-.55c6.74 3.35 16.87 2.44 15.02 12.34-1.04 2.94-3.41 5.46-7.13 7.57zm-7.41 22.39c13.41 1.5 17.9-18.72 2.52-20.65-.17.08-.49.26-.96.54-2.87-3.41-4.32 1.27-4.26 4.13-.56 2.1-1.07 4.7-1.06 6.86-.55 2.18-.8 4.9-1.03 7.08-.34 1.83 2.93 1.82 4.1 2.55l.69-.51zm3.2-23.83c8.28.62 10.57-12.54 1.61-14.63-6.52-3.65-5.06 8.03-5.9 11.72-.15 1.8-.8 3.68.98 3.52.56.22 1.39.41 1.76-.19.32.1.96.19 1.29.18l.26-.6zM325.32 80.73c9.07-1.24-.82 6.18-1.11 9.97-.55 1.7-1.3 3.96-.63 5.75-.02.54-.24.7-.89 1.21-1.34 1.14-2.14 4.81-1.74 6.45.42.58.36.78-.34.83-.52 1.33-1.16 2.21-.84 2.95-2.2.15-5.44-.07-3.56-2.37 5.03-9.73-5.82-1.69-9.82-2.18-16.79-1.72-1.13-20.22 1.19-27.9-.05-.3-.2-.91.36-.84.41.03 2.24-.3 2.67-.06.41.18 1.36 1.02 1.88 1.1.26.41.39.79.4 1.13-3.59 1.04-5.81 6.88-7.53 9.97-2.75 4.69-4.96 11.02-.2 13.72 3.08 1.27 11.29-.75 13.22-3.7 3.25-4.75 5.28-11.77 5.17-16.46.85-.02 1.21-.34 1.77.43zM351.44 94.88c-.13.14.36.71.42.75 1.53.58 2.97 3.08.42 3.25l-.13-.52c-.49.3-1.06.34-1.72.12l.02-.41-.38-.07c-1.51-2.14-4.13-2.5-6.18-4.09-5.46 6.99-12.08 17.52-2.59 23 .79 1.58-2.06 2.3-3.19 2.84-.14-.07-.25-.14-.23-.33-.62-.34-1.13-.71-1.53-1.12-.15.17-.37-.61-.51-.7-6.37-8.45-.06-17.57 5.26-25.16l-.46-.49-.35.26-.37-.2.08-.4c-7.06-3.72-6.85-6.8-1.36-3.44l1.26.35c4.23 1.44 6.59-4.82 8.7-8.1 1.38-2.43 5.76-3.51 5.41.35-3.33 1.66-7.06 7.6-8.51 11.08.18.95 2 .56 2.55 1.33l-.05.84c.62.67 2.61.47 3.44.86zM362.73 129.82c1.06 6.73-5.19 2.32-7.99.21-6.65-3.64-9.35-13.06-4.28-19.17 5.88-8.69 17.36-7.48 24.62-.99 3.66 1.44.33 3.3-.8 5.3-1.84-.4-1.73-3.36-3.02-4.04-1.4-1.2-2.66-3.41-4.97-3.42-.15-.3-.27-.44-.47-.58-5.13-.64-4.8-.79-9.78 1.03-4.4 3.97-5.9 8.85-4.34 13.96l.7.53c.24 2.72 7.61 8.04 10.33 7.17zM402.63 103.19c2.56 1.53 4.43 2.64.82 5-1.79.92-4.8 4.1-6.4 5.66-2.28 2.6-11.95 9.28-10.17 11.64 2.15 1.15 5.63 1.64 7.51 3.42 9.87 6.91-2.43 15.79-9.29 20.17-4.04 2.43-3.79 1.74-5.32 4.3-2.08 1.05-6.07-3.27-3.08-4.04 8.67-2.29 28.52-16.88 10.65-21.63-.73-.61-2.01-1.14-2.79-.46-.25-.49-.23-.57-.82-.6-3.52 2.45-8.72 7-11.48 10.42-.69.9-1.33 2.28-2.51 2.68.35.24.05 1.09-.61.99-.41-.45-1.73-.73-2.16-.84-.26-.37-.33-.75-.22-1.16-1.1-1.23-1.95-2.61-.22-3.2 2.04-1.78 5.34-2.08 7.61-4.76.96-.93 4.81-4.88 5.75-5.55-.68-2.22 1.45-2.87 3.66-3.09 3.54-3.14 18.69-17.05 16.64-17.7.39-.94 1.92-1.99 2.43-1.25zM413.05 168.37c-.16.67-1.29 1.07-1.81.88-.58.88-1.32-1.39-2.16-1.35-.01-.28.02-.73-.22-1.12l.11-.5c-1.51-1.78-2.45-4.16-4.15-5.9-1.69-2.61-3.29-6.56-6.43-6.92-11.05 3.94-6.56 17.7 1.34 22.75-1.18 2.12-5.05 2.54-5.81.03-2.14-3.08-2.4-3.4-4.21-8.23-7.57-14.58 14.73-24.07 23.8-14.15 5.93 3.69 6.04 10.72-.46 14.51zm-1.13-14.02c-.75-.71-9.73-3.45-9.46-1.44.5 1.65 6.33 9.31 7.32 10.95 2.87 3.86 8.86-4.33 2.14-9.51zM427.28 189.39c-1.21 0-2.75.24-4.02-.14l-.31-.69c1.03-5.55-6.17-5.35-9.79-5.4l-.91.41c-1.95-.01-2.33.77-3.69 1.17-1.51-.31-4.5 2.24-5.32 3.51-.8.44-1.64.46-1.95-.35l-.8-.3c-.52-.95-1.21-2.32-1.27-3.38.89-.53 3.97-.62 4.88-1.11l6.55-2.77c5.04-2.28 9.35-4.57 12.94-6.86 1.88-1.67 4.52.8 4.28 2.78-1.44 1.88-4.46.81-6.84 2.37-.75.65-4.7 1.42-4.11 2.82 5.33-.2 8.85 2.65 11.26 6.66-.15.85-.35 1.08-.9 1.28zM425.14 208.97c-3.14 6.77-14.14 4.97-16.91-1.2-1.17-2.96-4.61-8.16 1.04-8.82.34.58.01 1.68.01 2.18l.11.16c-1.24 12.53 15.53 13.55 13.16-1.92-.14-2.06 1.27-4.44 2.94-5.44 8.26-2.75 10.39 4.12 12.8 11.34-.66 1.19-3.3 1.44-4.27.75.52-.49.79-.93.18-1.36 3.91-7.42-9.32-14.18-8.61-3.45.1 2.71.3 6.11-.45 7.76z"/></g><g id="slogan"><path d="M93.9 344.12c2.4-.01 6.16-2.89 8.5-4.34 4.64-2.39 10.78-7.08 14.33-9.23 2.15-1.99 3.8 1.86 5.76 4.65 15.22 22.75-12.94 29.91-26.02 13.48-2.67-.44-5.51 3.48-8.07 4.52-.81.37-1.7 1.74-2.65 1.73-.62-.49-2.11-2-2.76-2.45-.15-.32-.25-1.29-.43-1.69-.25-.82.14-.64.99-.53 3.2-.56 8.9-2.99 10.35-6.14zm4.63 2.61c8.96 13.52 32.51 8.82 22.98-8.99-1.42-2.24-2.17-4.42-5.15-2.42-5.18 3.77-12.64 7.9-17.83 11.41zM131.67 377.9c-1.15.35-2.57 1.02-3.89 1.03l-.5-.57c-.62-5.61-7.46-3.34-10.94-2.33l-.75.66c-1.85.54-2.01 1.41-3.19 2.19-1.54.14-3.66 3.45-4.08 4.9-.64.65-1.44.92-1.97.23l-.85-.06c-.78-.76-1.83-1.87-2.19-2.87.7-.77 3.62-1.75 4.35-2.48l5.47-4.55c4.16-3.64 7.63-7.08 10.4-10.32 1.32-2.14 4.56-.54 4.9 1.42-.83 2.22-4.03 2.07-5.86 4.25-.53.83-4.08 2.72-3.11 3.89 5.01-1.74 9.27-.01 12.71 3.12.1.86-.03 1.14-.5 1.49zM148.88 398.39c.04.69-.93 1.39-1.48 1.36-.29 1.02-1.67-.96-2.46-.67-.09-.27-.2-.7-.53-1.01l-.04-.51c-1.96-1.27-3.54-3.28-5.67-4.45-2.37-2.02-5.03-5.34-8.14-4.78-9.45 6.95-1.19 18.84 7.83 21.4-.52 2.37-4.11 3.89-5.56 1.7-2.93-2.33-3.28-2.56-6.4-6.67-11.44-11.78 7.19-27.29 18.73-20.39 6.73 1.81 8.85 8.52 3.72 14.02zm-5.12-13.11c-.92-.46-10.32-.5-9.47 1.34.95 1.44 8.74 7.1 10.16 8.38 3.86 2.87 7.24-6.69-.69-9.72zM186.85 411.8c19.92 4.6 1.24 22.37-5.7 30.27-1.33-.59-2.91-.89-3.81-2.2.74-1.37 1.42-2.11 2.04-2.22-.05-.35-.02-.45.1-.66.34-.1.64-.08.89.05 11.38-7.52 19.53-25.13-.42-23.29-1.37-.03-2.23.27-2.31 1.41-.32-.09-.6-.1-.84-.02-4.45 5.9-5.74 11.23-9.44 16.43-1.23-.35-2.12-.36-2.69-.04-1.1-1.25-1.14-1.84-.16-3.64 3.76-3.42 6.66-8.19 8.38-13.53 3.91-8.2-4.21-10.26-10.65-8.99-4.16 1.41-8.43 12.96-9.46 16.86-1.08 1.18-3.44 1.86-4.06.32l-.43.05c-.05-.3-.03-.61.07-.95 2.16-2.56 1.43-3.45 3.92-6.99.43-1.93 5.2-6.45 3.84-9.71.08-.73.11-.71.64-1.27l-.24-.33c5.19-1.51.33-3.71 5.26-6.02l.51.26c2.09-1.55 3.15 1.78 1.8 3.15-.87.39-1.86 2.09-1.2 2.51 1.91-.07 5.64.26 7.54.39.25.15.9.68 1.19.67 2.51-.21 6.11 2.86 5.71 5.81-.2.6.67 2.37 1.03 1.71.73-.01 2.67-.41 3.59.02.54-.45 1.89-.36 4.05.25l.85-.3zM207.25 446.72c.02.26-3.12.54-3.17.43-4.15.14-2.66-3.27-.78-5.17 1.55-3.57 3.9-14.86 5.29-19.3-.32-2.05-.98-4.57 2.39-4.5 7.94-3.2-6.09 17.44-3.9 28.36.07.07.12.13.17.18zm8.74-37.59c.33.59 2.39 1.8 2.02 2.74-.19.88-1.98 1.77-2.84 1.46-.78.02-2.17-2.35-2.19-2.82.21-.79 2.19-1.76 3.01-1.38zM244.31 425.04c8.58-3.19.55 6.21 1.1 9.97-.17 1.78-.4 4.15.64 5.74.1.54-.08.73-.6 1.38-1.06 1.41-1.04 5.16-.29 6.67.53.48.53.69-.15.88-.22 1.41-.65 2.41-.17 3.06-2.11.62-5.33 1.12-4-1.53 2.78-10.59-6.05-.38-10.06.02-16.76 2-5.53-19.48-4.94-27.49-.11-.28-.39-.85.16-.89.41-.06 2.12-.78 2.59-.64.44.09 1.55.7 2.07.67.34.34.56.68.64 1.02-3.28 1.8-4.17 7.98-5.17 11.38-1.66 5.16-2.42 11.87 2.8 13.43 3.34.54 10.8-3.17 12.09-6.5 2.13-5.34 2.58-12.64 1.45-17.19.85-.22 1.13-.61 1.84.02zM288.97 423.16c18.98-7.61 13.81 17.65 12.63 28.1-1.43.27-2.9.93-4.38.37-.18-1.54-.04-2.54.41-2.99-.24-.26-.27-.35-.3-.6.23-.28.48-.43.76-.47 4.04-8.97 3.24-29.44-9.85-21.36-1.1 1.09-6.24 2.9-4.9 4.97-.31.11-.54.26-.7.46-.28 7.39 1.71 12.5 1.64 18.88-1.21.41-1.95.92-2.23 1.51-4.5-.27.49-10.67-3.07-18.8-1.36-8.9-9.41-6.01-13.88-1.29-2.61 3.53.49 15.45 1.88 19.24-.21 1.58-1.75 3.49-3.15 2.58l-.33.29c-.21-.21-.37-.49-.48-.82.31-3.33-.8-3.64-.78-7.98-.75-1.83.58-8.27-2.41-10.16-.35-.65-.32-.65-.2-1.41l-.39-.13c3.4-4.2-1.85-3.23.87-7.95l.57-.08c.83-2.46 3.6-.34 3.28 1.56-.49.82-.33 2.78.45 2.75 1.52-1.15 4.77-3.01 6.41-3.99.29-.02 1.13.04 1.36-.13 1.94-1.61 6.64-1.14 8.01 1.51.18.61 1.9 1.56 1.83.81.6-.43 1.96-1.87 2.96-2.04.19-.68 1.34-1.38 3.46-2.11l.53-.72zM352.16 377.2c7.03 9.04 17.43 22.9 25.34 31.34.8 1.08 3.86 1.74 1.52 2.96l-.11 1.1c-.35.48-1.93 1.54-2.13 2.03-4.55-4.99-7.88-11.75-12.53-16.5-3.17-3.46-7.13-10.51-10.53-11.82 1.62 17.66 1.61 24.95 3.03 26.55-.02.32 0 .67.04 1.04.27.09.47.24.6.45-.41 1.65-.45 2.96-.14 3.93-.35 1.84-3.56.45-4.52-.7-5.99-3.95-16.66-12.07-21.91-15.12.61 5 4.55 12.45 6.14 17.94 1.22 3.45 2.92 6.25 4.03 9.54.91.91 2.41 3.41 1.97 4.3-1.56 1.96-.87 2.42-3.75 1.82.81-3.08-8.57-26.4-11.73-34.13-.93-1.4-2.7-3.94-2.66-5.42-.03-2.61 2.24-2.84 4.05-.49 1.55-.07 1.37 1 2.66 2.13.9 1.16 5.81 4.18 7.92 5.43 1.2 1.99 2.73 2.38 6.2 4.87 11.57 8.68 8.12.26 7.23-9.65-.87-6.3-1.16-9.37-2.12-15.34-.58-2.68-1.13-5.38 1.4-6.26zM391.85 371.53c.69.01 1.33 1.02 1.26 1.57.99.35-1.07 1.6-.83 2.41-.27.07-.72.15-1.04.46l-.51.01c-1.4 1.87-3.51 3.32-4.82 5.36-2.17 2.22-5.67 4.66-5.31 7.81 6.31 9.89 18.72 2.45 21.88-6.38 2.33.68 3.6 4.36 1.32 5.66-2.53 2.77-2.77 3.1-7.09 5.94-12.52 10.63-26.75-9-19.09-20.05 2.25-6.62 9.08-8.28 14.23-2.79zm-13.43 4.23c-.52.89-1.19 10.26.7 9.54 1.52-.86 7.65-8.25 9.04-9.58 3.14-3.66-6.18-7.68-9.74.04zM409.8 351.96c.83 3.68 6.63 5.28 9.06 8.17 1.84 1.64 5.16 2.57 7.2 4.29.52 3.16.39 3.56-1.32 4.92-1.73-.58-3.09-1.95-3.56-3.67.1-.16-2.88-2.42-3.01-1.88-.11.34-.25.87-.55 1.2-.01.29.08.54.26.74-.57 4.21-5.56 14.74-11.59 9.5-4.58-3.23-2.53-14.54-.24-18.76.32-1.3-.03-1.73-1.42-2.74-4.56-3.76-11.07.44-12.85 5.2.42 6.84-6.18 2.01 1.03-6.72 3.95-5.37 9.92-3.54 15.19.26.54.17 1.32-.94 1.8-.51zm5.35 11.07c-2.65-8.18-9.96-5.94-9.72 1.7-3.52 13.03 12.27 8.85 10.17-1.39l-.45-.31zM411.79 326.58c.14.12.69-.38.73-.44.54-1.55 2.98-3.07 3.23-.53l-.51.15c.32.48.37 1.05.17 1.72H415l-.06.38c-2.1 1.58-2.37 4.21-3.9 6.3 7.15 5.24 17.88 11.53 23.07 1.88 1.56-.84 2.36 1.98 2.94 3.1-.06.14-.13.25-.33.24-.32.63-.68 1.15-1.07 1.56.18.14-.6.39-.68.54-8.25 6.63-17.56.6-25.31-4.48l-.48.47.27.34-.19.38-.41-.07c-3.5 7.18-6.59 7.06-3.4 1.46l.31-1.27c1.31-4.27-5.02-6.43-8.37-8.45-2.48-1.3-3.68-5.65.18-5.41 1.76 3.28 7.81 6.83 11.33 8.16.95-.22.49-2.02 1.25-2.59l.84.02c.7-.63.44-2.62.8-3.46z"/></g><path d="M378.02 256c0 67.93-55.07 123-123 123-163.16-6.48-163.11-239.55 0-246 67.93 0 123 55.07 123 123z" id="main"/><g id="tiny-icon-1"><path class="st15" d="M186.88 269.59c.46 4.02-1.74 8.53 1.28 11.99.53.61 1.58.55 2.12 0 .61-.61.53-1.51 0-2.12-.17-.2.01.04-.07-.08-.05-.08-.1-.15-.15-.23-.06-.09-.28-.56-.18-.32a5.18 5.18 0 0 1-.32-1.23c.02.16.01.08 0-.04l-.03-.37c-.01-.23-.02-.45-.02-.68 0-.47.03-.94.07-1.41.15-1.82.52-3.67.31-5.5-.09-.8-.62-1.5-1.5-1.5-.75-.01-1.61.68-1.51 1.49zM178.45 254.45c-2.57-3.21-4.94-7.2-4.72-11.34.07-1.41.56-2.91 1.33-4.2.85-1.41 1.99-2.6 3.35-3.68 3.15-2.51 7.16-4.13 11.03-5.32 4.64-1.42 9.46-2.31 14.29-2.81 4.79-.5 9.62-.66 14.43-.41 2.02.11 4.07.28 6.04.59 1.98.31 3.93.97 5.93 1.07 15.1.74 30.1-2.3 45.05-3.9 14.4-1.54 29.82-2.11 43.24 4.25 3.42 1.62 6.67 3.63 9.6 6.01.74.6 1.58 1.2 2.22 1.92.57.64.99 1.5 1.43 2.24.77 1.31 1.49 2.66 2.12 4.04 1.87 4.05 3.15 8.79 2.28 13.23-1.58 8.09-9.41 12.41-16.87 14.3-9.45 2.4-19.78 1.88-29.13-.76-2.3-.65-4.58-1.43-6.76-2.42-1.06-.48-2.1-.99-3.11-1.55-.5-.27-.98-.58-1.47-.85-.93-.52-2.01-.79-3.03-1.12-8.83-2.88-17.9-5.02-27.09-6.42a174.828 174.828 0 0 0-55.17.37c-4.51.75-8.98 1.69-13.41 2.81-1.87.47-1.08 3.36.8 2.89 18.65-4.68 38.04-6.12 57.19-4.36a169.332 169.332 0 0 1 35.15 7.06c1.79.56 3.5 1.09 5.13 2.01 2.22 1.25 4.56 2.3 6.95 3.18 9.67 3.57 20.52 4.55 30.69 2.91 8.31-1.34 17.82-5.04 21.66-13.14 1.94-4.09 2.11-8.63 1.13-13-.63-2.81-1.74-5.52-3.04-8.09a50.13 50.13 0 0 0-2.45-4.27c-1.05-1.65-2.76-2.85-4.3-4.03-12.44-9.55-28.05-11.77-43.32-11.02-15.71.77-31.18 4.18-46.9 4.77-1.86.07-3.71.1-5.57.07-1.46-.02-3.01.06-4.43-.31-1.95-.5-3.95-.81-5.94-1.06-4.65-.56-9.36-.62-14.03-.37-9.68.51-20.14 2.08-28.72 6.89-3.3 1.85-6.53 4.43-8.14 7.94-1.72 3.74-1.31 7.77.3 11.47 1.04 2.39 2.53 4.53 4.16 6.56 1.18 1.48 3.29-.65 2.1-2.15z"/><path class="st15" d="M168.99 262.37c1.02 8.6 4.37 17.93 13.07 21.35 4.28 1.69 9.06 1.5 13.48.5 3.12-.7 6.06-1.83 9.25-2.27 6.07-.85 12.5-.43 18.61.42 7.25 1.02 14.41 2.67 21.5 4.5 14.77 3.82 29.3 8.59 44.23 11.77 6.52 1.39 13.17 2.51 19.84 2.66 5.57.13 11.28-.46 16.44-2.68 4.83-2.08 8.77-5.7 11.29-10.31 3.33-6.07 4.32-13.2 4.46-20.03.05-2.15-.01-4.3-.12-6.45-.1-1.92-3.1-1.93-3 0 .38 7.24.14 14.78-2.42 21.65-1.75 4.69-4.78 8.67-8.98 11.16-4.28 2.53-9.37 3.47-14.37 3.64-6.16.22-12.32-.59-18.36-1.73-14.5-2.73-28.6-7.28-42.82-11.14-13.27-3.6-27.16-7.28-41.02-6.88-2.91.08-5.82.38-8.67.98-3.55.74-6.87 2.15-10.53 2.41-3.95.28-7.98-.46-11.18-2.92-3.13-2.4-5.09-6.03-6.26-9.73-.71-2.25-1.17-4.57-1.45-6.91-.22-1.88-3.22-1.9-2.99.01z"/><path class="st15" d="M317.03 283.89c.54 5.01-.14 10.01-2.01 14.69-.3.75.33 1.65 1.05 1.85.85.23 1.54-.29 1.85-1.05a32.497 32.497 0 0 0 2.11-15.49c-.09-.81-.63-1.5-1.5-1.5-.75 0-1.59.69-1.5 1.5zM267.3 273.91l-4.11 9.18c-.32.71-.23 1.65.54 2.05.65.35 1.71.23 2.05-.54l4.11-9.18c.32-.71.23-1.65-.54-2.05-.65-.34-1.71-.22-2.05.54zM274.96 275.44a61.603 61.603 0 0 1-5.28 9.24c-.45.65-.14 1.69.54 2.05.77.4 1.57.15 2.05-.54 2.02-2.92 3.79-6.01 5.28-9.24.33-.71.23-1.65-.54-2.05-.66-.34-1.7-.22-2.05.54zM188.32 249.02c-1.89-1.34-4.07-3.1-4.9-5.27-.58-1.51-.33-2.76.67-4.1 2.42-3.25 7.45-4.89 11.32-5.91 4.4-1.16 9.43-1.93 13.85-1.35 2.54.33 5.06 1.44 7.45 2.32 8.14 2.97 16.24 6.23 24 10.1 1.69.85 3.37 1.73 4.99 2.7.62.38 1.24.77 1.84 1.18.62.43.64.42 1.25.99.16.15.3.31.45.46.14.15.2.25.02.01.06.08.13.18.17.27.14.28 0-.3.04.12-.03-.34-.06-.23.1-.62-.08.18.05-.05.08-.05.06.01.15-.08-.06.03-.27.14-.1.06-.02.03-.22.08-.45.15-.68.2l-.44.09c-.37.07 0 .01-.23.04-2.2.25-4.45.1-6.65-.07-4.87-.37-9.73-.81-14.61-1.14-9.58-.64-19.23-.83-28.73.72-2.36.38-4.7.89-7.02 1.5-1.86.5-1.07 3.39.8 2.89 10.03-2.67 20.44-2.88 30.75-2.36 5.2.26 10.4.71 15.59 1.13 3.03.25 6.1.6 9.15.39 2.26-.16 6.27-1.17 4.59-4.33-.58-1.1-1.67-1.91-2.65-2.63-1.37-1-2.85-1.85-4.33-2.66-8.2-4.47-17-7.95-25.73-11.21-2.67-1-5.4-2.16-8.19-2.8-4.8-1.11-10.23-.31-14.96.76-4.74 1.08-10.12 2.81-13.62 6.38-1.43 1.46-2.48 3.35-2.46 5.44.02 2.38 1.34 4.49 2.92 6.18 1.12 1.2 2.43 2.21 3.76 3.16 1.55 1.12 3.05-1.48 1.49-2.59zM242.6 237.22c.72.39 1.44.76 2.17 1.11.8.38 1.61.74 2.43 1.08.66.27 1.33.53 2 .77.63.22 1.27.43 1.92.61a28.498 28.498 0 0 0 3.54.78c.67.1 1.34.19 2.01.24.51.04 1.02.07 1.53.07.48 0 .95-.01 1.43-.04.58-.04 1.15-.11 1.72-.2a14.321 14.321 0 0 0 2.35-.56c.46-.16.92-.34 1.37-.54.31-.14.61-.29.91-.46.28-.16.54-.33.8-.52.34-.25.68-.51.99-.8.2-.19.4-.39.57-.61.25-.3.49-.61.69-.93.13-.21.25-.43.34-.66.14-.34.29-.67.37-1.02.03-.11.05-.22.07-.34.04-.24.07-.48.09-.73.01-.22.01-.44-.02-.66-.04-.35-.08-.7-.19-1.04-.07-.23-.17-.45-.27-.67-.04-.1-.09-.21-.15-.31-.17-.32-.4-.6-.62-.89-.16-.2-.33-.38-.52-.55-.3-.26-.62-.51-.95-.73-.25-.16-.51-.31-.78-.43-.41-.19-.84-.37-1.27-.51-.34-.11-.7-.21-1.05-.28-.52-.11-1.05-.18-1.58-.25-.44-.05-.88-.08-1.33-.1-.49-.02-.98-.01-1.47.01-.54.02-1.08.07-1.62.13-.72.08-1.43.18-2.14.3-.64.11-1.27.24-1.9.39a47.377 47.377 0 0 0-4.25 1.21c-.79.26-1.57.55-2.35.84-.96.37-1.9.76-2.85 1.16-.86.37-1.71.75-2.56 1.15-.17.09-.32.22-.42.39-.13.14-.22.31-.27.51-.06.2-.07.4-.03.6.01.2.07.39.18.56.08.1.16.2.23.3.19.19.41.31.66.39.13.02.27.04.4.05.27 0 .52-.07.76-.2.74-.35 1.48-.68 2.23-1 .2-.09.41-.18.61-.26l-.36.15c.89-.37 1.78-.73 2.68-1.07.82-.31 1.65-.6 2.49-.86.77-.25 1.55-.48 2.33-.68.71-.19 1.42-.36 2.14-.51.66-.14 1.32-.25 1.98-.35l.23-.03c-.13.02-.27.04-.4.05.75-.1 1.51-.17 2.27-.2.66-.03 1.32-.02 1.98.02a10.92 10.92 0 0 1 .6.05c.38.05.76.12 1.13.2.34.08.67.17 1 .29.17.06.34.12.51.19l-.36-.15c.4.17.79.37 1.15.62.09.06.18.13.27.2-.1-.08-.2-.16-.3-.23.24.19.47.4.68.63l.16.19c-.08-.1-.16-.2-.23-.3.16.2.3.42.41.65.03.06.06.13.09.19l-.15-.36c.09.22.17.46.21.69l.03.2a5.46 5.46 0 0 1-.05-.4c.03.25.04.5.02.75-.01.07-.01.14-.02.21.02-.13.04-.27.05-.4-.04.28-.11.56-.2.83-.03.08-.06.16-.09.23l.15-.36c-.13.32-.3.62-.5.9-.06.08-.12.17-.18.25.08-.1.16-.2.23-.3-.13.17-.27.34-.42.49-.16.16-.32.32-.49.47-.1.09-.21.17-.31.25.1-.08.2-.16.3-.23-.24.18-.48.35-.73.51a9.661 9.661 0 0 1-1.34.69l.36-.15c-.39.17-.8.31-1.21.43-.44.13-.89.24-1.35.33-.27.05-.55.1-.82.13.13-.02.27-.04.4-.05-.63.08-1.26.13-1.9.15a20.84 20.84 0 0 1-3.35-.2c.13.02.27.04.4.05-.48-.06-.96-.14-1.44-.24-.51-.1-1.01-.21-1.51-.33-.53-.13-1.05-.28-1.57-.44-.55-.17-1.1-.35-1.64-.55a60.024 60.024 0 0 1-1.93-.75l.36.15c-.52-.22-1.03-.45-1.54-.68-.53-.25-1.06-.51-1.59-.78-.31-.16-.61-.32-.92-.48-.17-.11-.36-.17-.56-.18-.2-.04-.4-.04-.6.03-.2.05-.37.14-.51.27-.16.11-.29.25-.39.42l-.15.36c-.07.27-.07.53 0 .8l.15.36c.17.21.35.39.57.52zM266.79 248.01c.3-.24.6-.47.9-.71-.1.08-.2.16-.3.23 1.15-.88 2.31-1.75 3.49-2.58a84.289 84.289 0 0 1 6.71-4.27c1.06-.6 2.14-1.18 3.24-1.73 1.04-.52 2.08-1 3.15-1.46.12-.05.25-.11.37-.16l-.36.15c.82-.34 1.64-.67 2.47-.97.8-.29 1.6-.56 2.41-.82.78-.24 1.56-.46 2.34-.66a41.966 41.966 0 0 1 4.49-.9c.09-.01.18-.03.27-.04-.13.02-.27.04-.4.05a39.529 39.529 0 0 1 3.7-.31 32.983 32.983 0 0 1 3.49.07c.55.04 1.11.1 1.66.17l.2.03a5.46 5.46 0 0 0-.4-.05c.5.07 1 .15 1.49.24.48.09.97.19 1.44.31.47.11.93.24 1.39.37.45.13.9.28 1.34.44.43.15.87.32 1.29.5.05.02.11.04.16.07l-.36-.15a24.753 24.753 0 0 1 4.43 2.42c.37.26.74.52 1.1.8-.1-.08-.2-.16-.3-.23.62.48 1.21.98 1.78 1.52.55.52 1.07 1.06 1.56 1.63.27.31.53.63.79.96-.08-.1-.16-.2-.23-.3a20.78 20.78 0 0 1 2.68 4.57l-.15-.36c.24.57.45 1.15.63 1.74.18.57.33 1.16.44 1.75.06.32.12.65.16.98a5.46 5.46 0 0 1-.05-.4c.07.51.11 1.02.13 1.53.02.5.01 1.01-.03 1.51a11.087 11.087 0 0 1-.04.43 13.496 13.496 0 0 1-.6 2.52c-.08.23-.17.45-.26.68l.15-.36c-.15.36-.32.71-.51 1.05-.19.34-.39.68-.61 1l-.39.54c.08-.1.16-.2.23-.3-.24.31-.5.61-.77.9-.28.29-.57.57-.87.84-.18.15-.36.3-.54.44.1-.08.2-.16.3-.23-.37.28-.75.55-1.14.79-.41.25-.84.49-1.27.7-.25.12-.51.24-.77.35l.36-.15c-.59.25-1.2.46-1.81.65-.66.2-1.33.35-2 .48-.4.08-.81.14-1.22.2.13-.02.27-.04.4-.05a25.22 25.22 0 0 1-3.13.23c-.56.01-1.13.01-1.69-.01-.6-.02-1.19-.06-1.79-.1-.63-.05-1.25-.12-1.88-.2l-.24-.03c.13.02.27.04.4.05-1.01-.14-2.01-.31-3.01-.5-1.08-.21-2.15-.46-3.21-.74a77.949 77.949 0 0 1-7.08-2.23c-1.3-.48-2.58-.98-3.86-1.51-.16-.07-.33-.14-.49-.2l.36.15c-1.25-.53-2.5-1.08-3.73-1.66a141.46 141.46 0 0 1-8.02-4.05c-1.44-.79-2.88-1.59-4.3-2.42-1.51-.88-3.01-1.78-4.49-2.7-.19-.11-.37-.23-.56-.35-.33-.2-.79-.25-1.16-.15-.35.1-.73.36-.9.69-.18.35-.28.77-.15 1.16.12.38.35.68.69.9 1.1.69 2.22 1.36 3.33 2.03 1.07.63 2.14 1.26 3.21 1.87 1.04.59 2.08 1.17 3.13 1.74 1 .54 2 1.07 3.01 1.59.97.5 1.94.98 2.92 1.46.94.45 1.88.89 2.82 1.32 1.01.46 2.02.9 3.04 1.33.87.37 1.74.72 2.62 1.06.84.33 1.68.64 2.53.94.8.28 1.61.56 2.42.82.77.25 1.55.48 2.33.71.74.21 1.48.41 2.23.59.71.17 1.42.34 2.14.48.68.14 1.36.27 2.05.38.77.13 1.55.23 2.33.33.62.07 1.24.14 1.86.18.59.04 1.18.07 1.77.09.56.01 1.11.01 1.67 0 .53-.02 1.06-.04 1.59-.09.63-.05 1.25-.13 1.88-.22.47-.07.94-.15 1.41-.25.44-.09.89-.2 1.32-.33.41-.12.83-.25 1.23-.4.51-.18 1.01-.39 1.5-.61.36-.16.71-.34 1.06-.53.34-.18.66-.38.98-.59.41-.27.81-.57 1.19-.88.28-.22.55-.45.81-.7.26-.24.5-.49.73-.75.31-.35.6-.72.88-1.09.2-.27.39-.55.57-.84.18-.28.34-.58.49-.88.21-.41.39-.83.56-1.26.13-.31.24-.62.34-.94.1-.32.19-.64.26-.97.07-.33.13-.66.18-.99.07-.47.13-.93.16-1.4.02-.34.03-.68.03-1.03s-.01-.7-.04-1.04a23.529 23.529 0 0 0-.35-2.49c-.07-.36-.16-.71-.26-1.06a18.62 18.62 0 0 0-.73-2.11c-.19-.47-.39-.93-.61-1.39-.17-.35-.34-.69-.53-1.03a20.632 20.632 0 0 0-1.27-2c-.31-.43-.63-.85-.96-1.26-.26-.32-.52-.64-.8-.94-.28-.31-.56-.61-.86-.91-.3-.3-.61-.59-.93-.87-.32-.29-.65-.57-.99-.84-.44-.35-.88-.69-1.34-1.02a21.547 21.547 0 0 0-2.28-1.44c-.4-.23-.81-.44-1.23-.64-.42-.21-.85-.4-1.29-.59-.56-.24-1.12-.47-1.69-.67-.46-.17-.93-.32-1.4-.46-.48-.14-.97-.27-1.45-.39-.5-.12-1.01-.23-1.52-.32-.65-.12-1.3-.21-1.95-.3-.54-.07-1.08-.13-1.62-.17-.56-.04-1.12-.07-1.68-.09-.58-.01-1.15-.01-1.73 0-.59.02-1.18.05-1.77.09-.61.05-1.22.11-1.83.19-.75.1-1.5.2-2.25.33a41.125 41.125 0 0 0-3.91.87c-.68.18-1.35.38-2.01.6-.69.22-1.39.46-2.07.71-.71.26-1.42.54-2.12.83-.84.35-1.67.71-2.49 1.08-.74.34-1.48.7-2.2 1.07a68.775 68.775 0 0 0-4.53 2.52c-.79.47-1.56.96-2.33 1.46-.8.52-1.58 1.05-2.36 1.59a105.483 105.483 0 0 0-4.95 3.69c-.15.14-.25.3-.31.48-.09.18-.14.37-.13.58 0 .37.16.81.44 1.06.29.26.66.46 1.06.44.13-.02.27-.04.4-.05.36-.12.58-.25.77-.43z"/></g><g id="icon-wordings"><path class="st19" d="M224.79 181.1c2.17.49 5.7-.56 7.54.26-1.95 3.26-10.51-3.5-7.87 6.27 1.66 1.1 3.66.25 5.77.21.39 1.98-1.13 1.59-2.54 1.28-4.6-2-4.95 6.1-2.44 7.17 2.15.1 4.88-.48 6.95-.48 1.14 2.4-11.32 1.72-9.63.25 1.59-3.92-2.38-15.09 2.22-14.96zM247.18 182.78c-11.68-1.41-.69 5.37.96 9.36.97 3.63-6.83 8.47-8.07 4.54 16.84-1.72-1.67-7.22 1.05-13.26.73-2.16 8.22-4.07 6.06-.64zM269.33 181.36c-2.96 2.53-8.1-1.87-6.82 6.32-.81 2.82 1.36 8.84-.88 9.62-3.3-2.55 4.39-18.05-5.61-15.12 1.81-2.71 9.61-.52 13.31-.82zM284.98 181.31c9.81 5.25-.68 16.08-7.96 16.32-.04-4.71.04-11.73.19-16.72 2.12.13 5.49 0 7.77.4zm-6.27 13.54c.01 3.23 4.97-.49 6.35-1.69 8.71-13.49-11.76-17-6.35 1.69z"/><g><path class="st19" d="M229.74 321.81c-3.84 3.88 1.51 15.73-2.61 16.78-1.22-2.65 1.19-10.29-.44-13.78-1.41.54-1.68 2.6-3.39 2.54-1.9-.08 6.14-6.5 6.44-5.54zM245.22 332.09c-8.81 2.55-7.67-10.47.14-9.89 8.73 1.62-.12 17.09-4.77 17.24 19.61-18.88-8.01-20.56 2.01-8.38.92 1.16 5.14-1.49 2.62 1.03zM267.08 323.11c-3.96 5.67-9.05 4.18-1.31 8.29 5.34 8.79-14.63 7.74-6.96 5.77 6.72 3.68 8.83-7.66 1.21-6.5-1.51 1.1-3.17.15-1.23-1.13 6.31-3.13 6.92-7.72-.86-5.06-3.02-2.22 9.29-2.48 9.15-1.37zM286.12 336.6c.01.76-.29 2.69-1.27 1.56-2.97-1.21-8.61 1.6-10.63-.19 6.09-1.63 16.79-18.25 3.07-13.33-.95.91-2.21-.1-1.18-1.21 12.27-4.99 10.47 8.13 1.87 13.03.65 1.65 6.63-.22 8.14.14z"/></g></g></svg>